<svg width="22" height="22" viewBox="0 0 22 22" fill="none" xmlns="http://www.w3.org/2000/svg">
<g clip-path="url(#clip0_9_467)">
<path fill-rule="evenodd" clip-rule="evenodd" d="M12.8337 13.1595C12.24 13.7531 11.5353 14.2241 10.7596 14.5453C9.98402 14.8666 9.1527 15.032 8.31316 15.032C7.47362 15.032 6.6423 14.8666 5.86667 14.5453C5.09103 14.2241 4.38628 13.7531 3.79263 13.1595C3.19899 12.5659 2.72808 11.8611 2.40681 11.0855C2.08553 10.3098 1.92017 9.47852 1.92017 8.63898C1.92017 7.79944 2.08553 6.96812 2.40681 6.19249C2.72808 5.41685 3.19899 4.71209 3.79263 4.11845C4.99155 2.91953 6.61763 2.24599 8.31316 2.24599C10.0087 2.24599 11.6348 2.91953 12.8337 4.11845C14.0326 5.31737 14.7061 6.94345 14.7061 8.63898C14.7061 10.3345 14.0326 11.9606 12.8337 13.1595ZM13.1211 14.3974C11.6342 15.6426 9.72257 16.2629 7.7879 16.1279C5.85323 15.9929 4.04625 15.113 2.74681 13.6734C1.44736 12.2337 0.756667 10.3464 0.819907 8.40802C0.883147 6.46968 1.6954 4.63134 3.08592 3.27944C4.47644 1.92755 6.33693 1.16739 8.27628 1.15877C10.2156 1.15014 12.0828 1.89372 13.4853 3.23319C14.8878 4.57267 15.7164 6.40371 15.7968 8.34141C15.8773 10.2791 15.2034 12.1726 13.9168 13.6237L19.8853 19.5921C19.9427 19.6421 19.9893 19.7034 20.0219 19.7722C20.0546 19.841 20.0727 19.9158 20.0751 19.9919C20.0774 20.068 20.0641 20.1438 20.0358 20.2145C20.0075 20.2852 19.9649 20.3493 19.9107 20.4027C19.8565 20.4562 19.7918 20.4979 19.7207 20.5252C19.6496 20.5524 19.5736 20.5647 19.4975 20.5613C19.4215 20.5578 19.3469 20.5386 19.2786 20.505C19.2103 20.4714 19.1497 20.424 19.1005 20.3658L13.1211 14.3974Z" fill="#0E1B4D"/>
</g>
<defs>
<clipPath id="clip0_9_467">
<rect width="21" height="21" fill="white" transform="translate(0.0900879 0.25)"/>
</clipPath>
</defs>
</svg>
