<svg width="39" height="25" viewBox="0 0 39 25" fill="none" xmlns="http://www.w3.org/2000/svg">
<g clip-path="url(#clip0_9_368)">
<path opacity="0.07" d="M35.5 0.920044H3.5C1.8 0.920044 0.5 2.22004 0.5 3.92004V21.92C0.5 23.62 1.9 24.92 3.5 24.92H35.5C37.2 24.92 38.5 23.62 38.5 21.92V3.92004C38.5 2.22004 37.1 0.920044 35.5 0.920044Z" fill="black"/>
<path d="M35.5 1.92004C36.6 1.92004 37.5 2.82004 37.5 3.92004V21.92C37.5 23.02 36.6 23.92 35.5 23.92H3.5C2.4 23.92 1.5 23.02 1.5 21.92V3.92004C1.5 2.82004 2.4 1.92004 3.5 1.92004H35.5Z" fill="#006FCF"/>
<path d="M9.471 11.188L10.245 13.064H8.703L9.471 11.188ZM25.546 11.266H22.569V12.093H25.498V13.332H22.575V14.254H25.552V14.993L27.629 12.748L25.552 10.408L25.546 11.266ZM11.483 8.92604H15.478L16.365 10.861L17.187 8.92004H27.557L28.635 10.11L29.75 8.92004H34.513L30.994 12.772L34.477 16.6H29.643L28.565 15.41L27.44 16.6H10.53L10.036 15.41H8.906L8.411 16.6H4.5L7.786 8.92004H11.216L11.483 8.92604ZM20.146 10.004H17.907L16.407 13.54L14.782 10.004H12.56V14.814L10.5 10.004H8.507L6.125 15.516H7.68L8.174 14.326H10.77L11.264 15.516H13.984V11.581L15.735 15.522H16.925L18.665 11.593V15.523H20.123L20.147 10.003L20.146 10.004ZM29.486 12.772L32.017 10.004H30.195L28.594 11.73L27.046 10.004H21.152V15.522H26.962L28.576 13.784L30.124 15.522H31.999L29.486 12.772Z" fill="white"/>
</g>
<defs>
<clipPath id="clip0_9_368">
<rect width="38" height="24" fill="white" transform="translate(0.5 0.920044)"/>
</clipPath>
</defs>
</svg>
