<svg width="39" height="25" viewBox="0 0 39 25" fill="none" xmlns="http://www.w3.org/2000/svg">
<g clip-path="url(#clip0_9_182)">
<path opacity="0.07" d="M35.25 0.0499268H3.25C1.55 0.0499268 0.25 1.34993 0.25 3.04993V21.0499C0.25 22.7499 1.65 24.0499 3.25 24.0499H35.25C36.95 24.0499 38.25 22.7499 38.25 21.0499V3.04993C38.25 1.34993 36.85 0.0499268 35.25 0.0499268Z" fill="black"/>
<path d="M35.25 1.04993C36.35 1.04993 37.25 1.94993 37.25 3.04993V21.0499C37.25 22.1499 36.35 23.0499 35.25 23.0499H3.25C2.15 23.0499 1.25 22.1499 1.25 21.0499V3.04993C1.25 1.94993 2.15 1.04993 3.25 1.04993H35.25Z" fill="#5A31F4"/>
<path d="M21.632 9.76292C21.632 11.4309 20.455 12.6209 18.811 12.6209H17.262C17.2364 12.6213 17.2115 12.6291 17.1902 12.6432C17.1689 12.6574 17.1522 12.6775 17.142 12.7009C17.1355 12.7164 17.1321 12.7331 17.132 12.7499V14.9419C17.132 14.9589 17.1286 14.9758 17.1221 14.9915C17.1156 15.0072 17.106 15.0215 17.0939 15.0335C17.0818 15.0455 17.0675 15.055 17.0517 15.0614C17.0359 15.0678 17.019 15.071 17.002 15.0709H15.918C15.8835 15.0709 15.8505 15.0572 15.8261 15.0328C15.8017 15.0085 15.788 14.9754 15.788 14.9409V7.03592C15.7876 7.01016 15.795 6.98489 15.8093 6.96346C15.8236 6.94203 15.8441 6.92545 15.868 6.91592C15.8838 6.90929 15.9008 6.90589 15.918 6.90592H18.818C20.455 6.90592 21.632 8.09492 21.632 9.76292ZM20.28 9.76292C20.28 8.80492 19.622 8.10492 18.73 8.10492H17.262C17.2449 8.10492 17.228 8.10828 17.2123 8.11481C17.1965 8.12135 17.1822 8.13092 17.1701 8.14299C17.158 8.15507 17.1484 8.1694 17.1419 8.18517C17.1354 8.20094 17.132 8.21785 17.132 8.23492V11.2849C17.1318 11.302 17.1351 11.319 17.1416 11.3348C17.1482 11.3506 17.1578 11.3649 17.17 11.3769C17.1821 11.389 17.1964 11.3986 17.2122 11.4051C17.228 11.4117 17.2449 11.415 17.262 11.4149H18.73C19.622 11.4199 20.28 10.7199 20.28 9.76292ZM21.954 13.5539C21.9426 13.2977 21.9959 13.0428 22.109 12.8126C22.222 12.5824 22.3913 12.3845 22.601 12.2369C23.024 11.9209 23.685 11.7569 24.656 11.7229L25.689 11.6869V11.3839C25.689 10.7769 25.279 10.5209 24.621 10.5209C23.963 10.5209 23.546 10.7519 23.451 11.1309C23.4429 11.1575 23.4263 11.1808 23.4037 11.197C23.3811 11.2133 23.3538 11.2217 23.326 11.2209H22.304C22.2759 11.2213 22.2484 11.2125 22.2257 11.1959C22.203 11.1793 22.1862 11.1558 22.178 11.1289C22.1726 11.1111 22.1712 11.0923 22.174 11.0739C22.326 10.1759 23.078 9.49392 24.668 9.49392C26.36 9.49392 26.971 10.2769 26.971 11.7699V14.9419C26.9709 14.9591 26.9674 14.976 26.9606 14.9918C26.9539 15.0076 26.9441 15.0219 26.9319 15.0339C26.9196 15.0459 26.9051 15.0553 26.8891 15.0617C26.8732 15.068 26.8562 15.0712 26.839 15.0709H25.809C25.7745 15.0709 25.7415 15.0572 25.7171 15.0328C25.6927 15.0085 25.679 14.9754 25.679 14.9409V14.7049C25.6793 14.6853 25.6737 14.6661 25.6628 14.6499C25.6519 14.6336 25.6362 14.6211 25.618 14.6139C25.6 14.6068 25.5802 14.6051 25.5612 14.609C25.5422 14.6129 25.5248 14.6223 25.511 14.6359C25.201 14.9699 24.703 15.2109 23.904 15.2109C22.729 15.2109 21.954 14.6039 21.954 13.5539ZM25.689 12.8669V12.6209L24.35 12.6909C23.645 12.7269 23.235 13.0169 23.235 13.5069C23.235 13.9509 23.611 14.1969 24.269 14.1969C25.162 14.1969 25.689 13.7169 25.689 12.8669ZM28.005 17.4669V16.5479C28.0053 16.5287 28.0098 16.5097 28.0183 16.4924C28.0267 16.4751 28.0389 16.4599 28.054 16.4479C28.069 16.4358 28.0864 16.4271 28.105 16.4225C28.1237 16.4178 28.1431 16.4173 28.162 16.4209C28.32 16.4499 28.48 16.4649 28.641 16.4649C28.9168 16.48 29.1896 16.4018 29.4155 16.2429C29.6413 16.084 29.8071 15.8536 29.886 15.5889L29.953 15.3779C29.963 15.3494 29.963 15.3184 29.953 15.2899L27.808 9.81892C27.7956 9.78889 27.7948 9.7553 27.806 9.72476C27.8171 9.69422 27.8392 9.66894 27.868 9.65392C27.8871 9.64385 27.9084 9.63869 27.93 9.63892H28.97C28.9967 9.63899 29.0227 9.64715 29.0447 9.66232C29.0667 9.6775 29.0835 9.69897 29.093 9.72392L30.549 13.5829C30.558 13.6088 30.5749 13.6313 30.5973 13.647C30.6198 13.6628 30.6466 13.6712 30.674 13.6709C30.7014 13.6709 30.728 13.6624 30.7504 13.6467C30.7728 13.6309 30.7898 13.6087 30.799 13.5829L32.064 9.73492C32.0726 9.70839 32.0895 9.68532 32.1122 9.66911C32.1348 9.65291 32.1621 9.64442 32.19 9.64492H33.266C33.2983 9.64511 33.3294 9.65695 33.3537 9.67826C33.3779 9.69957 33.3937 9.72892 33.398 9.76092C33.4004 9.78226 33.3977 9.80386 33.39 9.82392L31.095 15.8999C30.567 17.3129 29.662 17.6729 28.665 17.6729C28.4758 17.6781 28.2868 17.6559 28.104 17.6069C28.0734 17.5994 28.0464 17.5811 28.0281 17.5554C28.0097 17.5298 28.0022 17.4984 28.005 17.4669ZM8.82001 6.44992C7.45551 6.43972 6.13843 6.95003 5.13701 7.87692C5.0944 7.91567 5.0678 7.96895 5.06244 8.0263C5.05707 8.08365 5.07333 8.14093 5.10801 8.18692L5.72601 9.02592C5.74604 9.05421 5.77205 9.07774 5.80219 9.09484C5.83234 9.11194 5.86588 9.1222 5.90044 9.12487C5.935 9.12754 5.96972 9.12257 6.00214 9.11031C6.03456 9.09805 6.06387 9.07879 6.08801 9.05392C6.44793 8.69651 6.87538 8.41431 7.34545 8.22374C7.81552 8.03317 8.31882 7.93805 8.82601 7.94392C10.946 7.94392 12.053 9.52792 12.053 11.0939C12.053 12.7939 10.89 13.9919 9.21801 14.0149C7.92601 14.0149 6.95201 13.1649 6.95201 12.0409C6.95312 11.7567 7.01771 11.4763 7.14107 11.2203C7.26443 10.9642 7.44344 10.7389 7.66501 10.5609C7.71219 10.5222 7.74214 10.4664 7.74832 10.4057C7.7545 10.345 7.73642 10.2843 7.69801 10.2369L7.04801 9.42192C7.02839 9.39686 7.0039 9.37603 6.97601 9.36068C6.94813 9.34534 6.91743 9.33579 6.88576 9.33261C6.85409 9.32943 6.82211 9.3327 6.79174 9.3422C6.76136 9.35171 6.73322 9.36726 6.70901 9.38792C6.31091 9.70726 5.98909 10.1114 5.76701 10.5709C5.54573 11.0294 5.43054 11.5318 5.43001 12.0409C5.43001 13.9759 7.08501 15.4929 9.20501 15.5049H9.23501C11.752 15.4729 13.572 13.6209 13.572 11.0899C13.572 8.84292 11.905 6.44992 8.82001 6.44992Z" fill="white"/>
</g>
<defs>
<clipPath id="clip0_9_182">
<rect width="38" height="24" fill="white" transform="translate(0.25 0.0499268)"/>
</clipPath>
</defs>
</svg>
