<svg width="39" height="25" viewBox="0 0 39 25" fill="none" xmlns="http://www.w3.org/2000/svg">
<g clip-path="url(#clip0_9_175)">
<path opacity="0.07" d="M35.75 0.0499268H3.75C2.05 0.0499268 0.75 1.34993 0.75 3.04993V21.0499C0.75 22.7499 2.15 24.0499 3.75 24.0499H35.75C37.45 24.0499 38.75 22.7499 38.75 21.0499V3.04993C38.75 1.34993 37.35 0.0499268 35.75 0.0499268Z" fill="black"/>
<path d="M35.75 1.04993C36.85 1.04993 37.75 1.94993 37.75 3.04993V21.0499C37.75 22.1499 36.85 23.0499 35.75 23.0499H3.75C2.65 23.0499 1.75 22.1499 1.75 21.0499V3.04993C1.75 1.94993 2.65 1.04993 3.75 1.04993H35.75Z" fill="white"/>
<path d="M24.65 8.34993C24.85 7.34993 24.65 6.64993 24.05 6.04993C23.45 5.34993 22.35 5.04993 20.95 5.04993H16.85C16.55 5.04993 16.35 5.24993 16.25 5.54993L14.75 15.6499C14.75 15.8499 14.85 16.0499 15.05 16.0499H17.75L18.15 12.6499L19.95 10.4499L24.65 8.34993Z" fill="#003087"/>
<path d="M24.65 8.34991L24.45 8.54991C23.95 11.3499 22.25 12.3499 19.85 12.3499H18.75C18.45 12.3499 18.25 12.5499 18.15 12.8499L17.55 16.7499L17.35 17.7499C17.35 17.9499 17.45 18.1499 17.65 18.1499H19.75C20.05 18.1499 20.25 17.9499 20.25 17.7499V17.6499L20.65 15.2499V15.1499C20.65 14.9499 20.95 14.7499 21.15 14.7499H21.45C23.55 14.7499 25.15 13.9499 25.55 11.5499C25.75 10.5499 25.65 9.74991 25.15 9.14991C25.05 8.64991 24.85 8.44991 24.65 8.34991Z" fill="#3086C8"/>
<path d="M24.05 8.14991C23.95 8.04991 23.85 8.04991 23.75 8.04991C23.65 8.04991 23.55 8.04991 23.45 7.94991C23.15 7.84991 22.75 7.84991 22.35 7.84991H19.35C19.25 7.84991 19.15 7.84991 19.15 7.94991C18.95 8.04991 18.85 8.14991 18.85 8.34991L18.15 12.7499V12.8499C18.15 12.5499 18.45 12.3499 18.75 12.3499H20.05C22.55 12.3499 24.15 11.3499 24.65 8.54991V8.34991C24.55 8.24991 24.35 8.14991 24.15 8.14991H24.05Z" fill="#012169"/>
</g>
<defs>
<clipPath id="clip0_9_175">
<rect width="38" height="24" fill="white" transform="translate(0.75 0.0499268)"/>
</clipPath>
</defs>
</svg>
