<svg width="39" height="25" viewBox="0 0 39 25" fill="none" xmlns="http://www.w3.org/2000/svg">
<g clip-path="url(#clip0_9_443)">
<path opacity="0.07" d="M35.5 0.420044H3.5C1.8 0.420044 0.5 1.72004 0.5 3.42004V21.42C0.5 23.12 1.9 24.42 3.5 24.42H35.5C37.2 24.42 38.5 23.12 38.5 21.42V3.42004C38.5 1.72004 37.1 0.420044 35.5 0.420044Z" fill="black"/>
<path d="M35.5 1.42004C36.6 1.42004 37.5 2.32004 37.5 3.42004V21.42C37.5 22.52 36.6 23.42 35.5 23.42H3.5C2.4 23.42 1.5 22.52 1.5 21.42V3.42004C1.5 2.32004 2.4 1.42004 3.5 1.42004H35.5Z" fill="white"/>
<path d="M28.8 10.52H28.5C28.1 11.52 27.8 12.02 27.5 13.52H29.4C29.1 12.02 29.1 11.32 28.8 10.52ZM31.7 16.42H30C29.9 16.42 29.9 16.42 29.8 16.32L29.6 15.42L29.5 15.22H27.1C27 15.22 26.9 15.22 26.9 15.42L26.6 16.32C26.6 16.42 26.5 16.42 26.5 16.42H24.4L24.6 15.92L27.5 9.12004C27.5 8.62004 27.8 8.42004 28.3 8.42004H29.8C29.9 8.42004 30 8.42004 30 8.62004L31.4 15.12C31.5 15.52 31.6 15.82 31.6 16.22C31.7 16.32 31.7 16.32 31.7 16.42ZM18.3 16.12L18.7 14.32C18.8 14.32 18.9 14.42 18.9 14.42C19.6 14.72 20.3 14.92 21 14.82C21.2 14.82 21.5 14.72 21.7 14.62C22.2 14.42 22.2 13.92 21.8 13.52C21.6 13.32 21.3 13.22 21 13.02C20.6 12.82 20.2 12.62 19.9 12.32C18.7 11.32 19.1 9.92004 19.8 9.22004C20.4 8.82004 20.7 8.42004 21.5 8.42004C22.7 8.42004 24 8.42004 24.6 8.62004H24.7C24.6 9.22004 24.5 9.72004 24.3 10.32C23.8 10.12 23.3 9.92004 22.8 9.92004C22.5 9.92004 22.2 9.92004 21.9 10.02C21.7 10.02 21.6 10.12 21.5 10.22C21.3 10.42 21.3 10.72 21.5 10.92L22 11.32C22.4 11.52 22.8 11.72 23.1 11.92C23.6 12.22 24.1 12.72 24.2 13.32C24.4 14.22 24.1 15.02 23.3 15.62C22.8 16.02 22.6 16.22 21.9 16.22C20.5 16.22 19.4 16.32 18.5 16.02C18.4 16.22 18.4 16.22 18.3 16.12ZM14.8 16.42C14.9 15.72 14.9 15.72 15 15.42C15.5 13.22 16 10.92 16.4 8.72004C16.5 8.52004 16.5 8.42004 16.7 8.42004H18.5C18.3 9.62004 18.1 10.52 17.8 11.62C17.5 13.12 17.2 14.62 16.8 16.12C16.8 16.32 16.7 16.32 16.5 16.32M5.5 8.62004C5.5 8.52004 5.7 8.42004 5.8 8.42004H9.2C9.7 8.42004 10.1 8.72004 10.2 9.22004L11.1 13.62C11.1 13.72 11.1 13.72 11.2 13.82C11.2 13.72 11.3 13.72 11.3 13.72L13.4 8.62004C13.3 8.52004 13.4 8.42004 13.5 8.42004H15.6C15.6 8.52004 15.6 8.52004 15.5 8.62004L12.4 15.92C12.3 16.12 12.3 16.22 12.2 16.32C12.1 16.42 11.9 16.32 11.7 16.32H10.2C10.1 16.32 10 16.32 10 16.12L8.4 9.92004C8.2 9.72004 7.9 9.42004 7.5 9.32004C6.9 9.02004 5.8 8.82004 5.6 8.82004L5.5 8.62004Z" fill="#142688"/>
</g>
<defs>
<clipPath id="clip0_9_443">
<rect width="38" height="24" fill="white" transform="translate(0.5 0.420044)"/>
</clipPath>
</defs>
</svg>
