<svg width="38" height="25" viewBox="0 0 38 25" fill="none" xmlns="http://www.w3.org/2000/svg">
<g clip-path="url(#clip0_9_374)">
<path d="M34.3872 0.920044H3.61287C3.48468 0.920044 3.35626 0.920044 3.2283 0.920723C3.12026 0.921629 3.01245 0.922762 2.90441 0.925706C2.66909 0.932048 2.43173 0.94609 2.19935 0.987764C1.9663 1.02769 1.74051 1.10212 1.52939 1.20859C1.10499 1.42445 0.760026 1.76942 0.544163 2.19382C0.4375 2.40502 0.363065 2.63099 0.323336 2.86423C0.281209 3.09684 0.267393 3.33397 0.261051 3.56907C0.258291 3.67701 0.25663 3.78498 0.256068 3.89295C0.255615 4.02069 0.255615 4.14888 0.255615 4.2773V21.5626C0.255615 21.691 0.255615 21.8189 0.256068 21.9474C0.256748 22.0552 0.258107 22.1632 0.261051 22.2712C0.267393 22.5059 0.281435 22.7432 0.323336 22.9756C0.362983 23.2089 0.437342 23.4348 0.543937 23.646C0.651108 23.857 0.790999 24.0496 0.958413 24.2168C1.12554 24.3843 1.31819 24.5242 1.52917 24.6313C1.74365 24.7407 1.96335 24.8102 2.19958 24.8525C2.43173 24.894 2.66909 24.908 2.90441 24.9144C3.01245 24.9169 3.12026 24.9182 3.2283 24.9189C3.35626 24.9198 3.48468 24.9198 3.61287 24.9198H34.3872C34.5152 24.9198 34.6436 24.9198 34.7715 24.9189C34.8794 24.9185 34.9872 24.9169 35.0956 24.9144C35.3305 24.908 35.5679 24.894 35.8007 24.8525C36.0338 24.8126 36.2596 24.738 36.4707 24.6313C36.8949 24.4151 37.2397 24.0702 37.4559 23.646C37.5653 23.4315 37.6346 23.2119 37.6765 22.9756C37.7186 22.7432 37.7322 22.5059 37.7386 22.2712C37.7415 22.1632 37.7431 22.0552 37.7435 21.9474C37.7444 21.8189 37.7444 21.691 37.7444 21.5626V4.27753C37.7444 4.14911 37.7444 4.02092 37.7435 3.89272C37.7431 3.78482 37.7414 3.67693 37.7386 3.56907C37.7322 3.33397 37.7186 3.09684 37.6765 2.86423C37.6371 2.63095 37.5627 2.40495 37.4559 2.19382C37.2399 1.76949 36.895 1.42456 36.4707 1.20859C36.2595 1.10223 36.0337 1.02788 35.8007 0.987991C35.5679 0.94609 35.3305 0.932274 35.0956 0.925933C34.9876 0.923189 34.8796 0.921528 34.7715 0.92095C34.6436 0.920044 34.5152 0.920044 34.3872 0.920044Z" fill="black"/>
<path d="M34.3873 1.72L34.766 1.72068C34.8683 1.72136 34.9709 1.72249 35.074 1.72521C35.2536 1.73019 35.4633 1.73993 35.659 1.77504C35.8289 1.80561 35.9716 1.85204 36.1084 1.9218C36.3821 2.061 36.6045 2.28364 36.7434 2.55756C36.8128 2.69345 36.859 2.83524 36.8895 3.00669C36.9244 3.20011 36.9342 3.41052 36.9389 3.59103C36.9419 3.69295 36.9432 3.79488 36.9434 3.89906C36.9446 4.02522 36.9446 4.15114 36.9446 4.27752V21.5628C36.9446 21.6892 36.9446 21.8151 36.9437 21.9437C36.9432 22.0457 36.9418 22.1476 36.9391 22.2495C36.9341 22.4298 36.9244 22.6402 36.8891 22.8359C36.8634 22.9915 36.8141 23.1424 36.743 23.2832C36.6038 23.5572 36.3811 23.7799 36.107 23.919C35.9711 23.9883 35.8289 24.0347 35.6606 24.065C35.4611 24.1006 35.2423 24.1103 35.0776 24.1149C34.9741 24.1171 34.8711 24.1187 34.7653 24.1192C34.6396 24.1201 34.5132 24.1201 34.3873 24.1201H3.60798C3.48341 24.1201 3.35884 24.1201 3.232 24.1192C3.13007 24.1187 3.02815 24.1174 2.92624 24.1151C2.75774 24.1106 2.53895 24.1006 2.34099 24.0653C2.18448 24.0392 2.03283 23.9895 1.89119 23.918C1.75532 23.849 1.63131 23.7588 1.52382 23.6508C1.41599 23.5432 1.32593 23.4191 1.25701 23.2832C1.18584 23.1416 1.13651 22.99 1.1107 22.8336C1.07537 22.6382 1.0654 22.4287 1.06087 22.2497C1.05831 22.1474 1.0568 22.0451 1.05634 21.9428L1.05566 21.6423V4.19825L1.05612 3.89815C1.05658 3.79569 1.05809 3.69324 1.06065 3.59081C1.06563 3.41143 1.07537 3.20192 1.11093 3.00488C1.13679 2.8488 1.18612 2.69752 1.25724 2.5562C1.32609 2.42076 1.41578 2.2971 1.5245 2.18861C1.63225 2.08069 1.75639 1.99049 1.89232 1.92135C2.03362 1.85036 2.18479 1.80104 2.34077 1.77504C2.53668 1.73993 2.74664 1.73019 2.92647 1.72521C3.02884 1.72249 3.13144 1.72136 3.23314 1.72068L3.61296 1.72H34.3873Z" fill="white"/>
<path d="M10.1097 9.02157C10.4277 8.62409 10.6433 8.09025 10.5864 7.54486C10.1212 7.56796 9.55363 7.85175 9.22477 8.2497C8.92965 8.59034 8.66851 9.14637 8.73646 9.66888C9.25874 9.71418 9.78058 9.40797 10.1097 9.02157Z" fill="black"/>
<path d="M10.5806 9.77102C9.82187 9.72572 9.17727 10.2013 8.81512 10.2013C8.45273 10.2013 7.89806 9.79367 7.29809 9.80476C6.51738 9.81609 5.79306 10.2577 5.39671 10.9599C4.58179 12.3641 5.18154 14.4478 5.97425 15.5916C6.35906 16.1578 6.82291 16.7807 7.43398 16.7582C8.01153 16.7356 8.23779 16.3845 8.93946 16.3845C9.6409 16.3845 9.84474 16.7582 10.456 16.7469C11.0898 16.7356 11.4861 16.1807 11.8709 15.6145C12.3126 14.969 12.4931 14.3461 12.5044 14.3121C12.4931 14.3008 11.2823 13.8363 11.2709 12.4434C11.2596 11.2769 12.2218 10.722 12.267 10.6878C11.7237 9.88426 10.8748 9.79367 10.5804 9.77102" fill="black"/>
<path d="M18.1422 8.19263C19.7906 8.19263 20.9386 9.32893 20.9386 10.9832C20.9386 12.6434 19.767 13.7856 18.101 13.7856H16.2759V16.6883H14.9573V8.19263H18.1422ZM16.2759 12.6787H17.7889C18.9372 12.6787 19.5904 12.0606 19.5904 10.9891C19.5904 9.9178 18.9369 9.30537 17.7947 9.30537H16.2759V12.6787Z" fill="black"/>
<path d="M21.2656 14.9278C21.2656 13.8386 22.0957 13.2146 23.6263 13.1204L25.2688 13.0203V12.5492C25.2688 11.8606 24.8156 11.4838 24.0091 11.4838C23.3437 11.4838 22.8608 11.8251 22.7611 12.349H21.5716C21.6072 11.2482 22.6431 10.4476 24.0444 10.4476C25.5515 10.4476 26.5347 11.2364 26.5347 12.4611V16.688H25.3162V15.6695H25.2867C24.9393 16.3347 24.1738 16.7526 23.3437 16.7526C22.1193 16.7526 21.2656 16.0228 21.2656 14.9278ZM25.2688 14.3803V13.9034L23.803 13.9976C22.9786 14.0506 22.5491 14.3566 22.5491 14.8922C22.5491 15.4104 22.9965 15.7461 23.697 15.7461C24.5916 15.7461 25.2688 15.1749 25.2688 14.3803Z" fill="black"/>
<path d="M27.6552 18.9604V17.9421C27.7376 17.9537 27.9376 17.9654 28.0436 17.9654C28.6263 17.9654 28.9561 17.7186 29.1563 17.0823L29.2741 16.7057L27.0427 10.5241H28.4202L29.9746 15.54H30.0041L31.5583 10.5241H32.9007L30.5868 17.0176C30.0569 18.5072 29.4505 18.996 28.1672 18.996C28.0671 18.996 27.7433 18.9842 27.6552 18.9604Z" fill="black"/>
</g>
<defs>
<clipPath id="clip0_9_374">
<rect width="38" height="24" fill="white" transform="translate(0 0.920044)"/>
</clipPath>
</defs>
</svg>
