<svg width="39" height="25" viewBox="0 0 39 25" fill="none" xmlns="http://www.w3.org/2000/svg">
<g clip-path="url(#clip0_9_125)">
<path d="M35.1372 0.0499268H4.36284C4.23465 0.0499268 4.10623 0.0499268 3.97826 0.0506062C3.87023 0.0515122 3.76242 0.0526446 3.65438 0.055589C3.41906 0.0619307 3.1817 0.0759731 2.94932 0.117647C2.71627 0.157575 2.49048 0.232001 2.27936 0.338475C1.85496 0.554338 1.51 0.899301 1.29413 1.32371C1.18747 1.5349 1.11303 1.76087 1.07331 1.99412C1.03118 2.22672 1.01736 2.46386 1.01102 2.69895C1.00826 2.80689 1.0066 2.91486 1.00604 3.02283C1.00558 3.15057 1.00558 3.27877 1.00558 3.40719V20.6924C1.00558 20.8209 1.00558 20.9488 1.00604 21.0772C1.00672 21.1851 1.00808 21.2931 1.01102 21.4011C1.01736 21.6358 1.0314 21.8731 1.07331 22.1055C1.11295 22.3387 1.18731 22.5647 1.29391 22.7759C1.40108 22.9869 1.54097 23.1795 1.70838 23.3467C1.87551 23.5142 2.06816 23.6541 2.27914 23.7612C2.49362 23.8705 2.71332 23.9401 2.94955 23.9824C3.1817 24.0239 3.41906 24.0379 3.65438 24.0443C3.76242 24.0468 3.87023 24.0481 3.97826 24.0488C4.10623 24.0497 4.23465 24.0497 4.36284 24.0497H35.1372C35.2651 24.0497 35.3935 24.0497 35.5215 24.0488C35.6293 24.0483 35.7371 24.0468 35.8456 24.0443C36.0805 24.0379 36.3178 24.0239 36.5507 23.9824C36.7838 23.9425 37.0096 23.8679 37.2206 23.7612C37.6448 23.545 37.9897 23.2001 38.2059 22.7759C38.3153 22.5614 38.3846 22.3417 38.4265 22.1055C38.4686 21.8731 38.4822 21.6358 38.4885 21.4011C38.4915 21.2931 38.4931 21.1851 38.4935 21.0772C38.4944 20.9488 38.4944 20.8209 38.4944 20.6924V3.40741C38.4944 3.27899 38.4944 3.1508 38.4935 3.02261C38.4931 2.91471 38.4914 2.80681 38.4885 2.69895C38.4822 2.46386 38.4686 2.22672 38.4265 1.99412C38.387 1.76083 38.3127 1.53483 38.2059 1.32371C37.9899 0.899375 37.645 0.55444 37.2206 0.338475C37.0095 0.232111 36.7837 0.157763 36.5507 0.117874C36.3178 0.0759731 36.0805 0.0621572 35.8456 0.0558155C35.7376 0.0530721 35.6296 0.0514111 35.5215 0.0508327C35.3935 0.0499268 35.2651 0.0499268 35.1372 0.0499268Z" fill="black"/>
<path d="M35.1372 0.849915L35.5158 0.850594C35.6182 0.851273 35.7208 0.852406 35.8239 0.855124C36.0035 0.860107 36.2132 0.869846 36.4089 0.904952C36.5788 0.935528 36.7214 0.981958 36.8583 1.05172C37.132 1.19091 37.3544 1.41356 37.4933 1.68747C37.5626 1.82337 37.6088 1.96515 37.6394 2.1366C37.6743 2.33003 37.684 2.54043 37.6888 2.72095C37.6917 2.82287 37.6931 2.92479 37.6933 3.02897C37.6944 3.15513 37.6945 3.28106 37.6945 3.40744V20.6927C37.6945 20.8191 37.6945 20.945 37.6935 21.0737C37.6931 21.1756 37.6917 21.2775 37.689 21.3794C37.684 21.5597 37.6743 21.7701 37.639 21.9658C37.6133 22.1215 37.564 22.2723 37.4929 22.4131C37.3537 22.6871 37.1309 22.9098 36.8569 23.0489C36.721 23.1182 36.5788 23.1646 36.4105 23.195C36.2109 23.2305 35.9922 23.2403 35.8275 23.2448C35.724 23.247 35.6209 23.2486 35.5152 23.2491C35.3895 23.25 35.2631 23.25 35.1372 23.25H4.35786C4.23329 23.25 4.10872 23.25 3.98189 23.2491C3.87996 23.2486 3.77803 23.2473 3.67613 23.245C3.50762 23.2405 3.28883 23.2305 3.09088 23.1952C2.93437 23.1691 2.78271 23.1195 2.64107 23.048C2.5052 22.9789 2.38119 22.8887 2.2737 22.7807C2.16587 22.6731 2.07582 22.549 2.0069 22.4131C1.93572 22.2715 1.88639 22.1199 1.86058 21.9635C1.82525 21.7681 1.81529 21.5586 1.81076 21.3796C1.8082 21.2774 1.80669 21.1751 1.80623 21.0727L1.80555 20.7722V3.32817L1.806 3.02807C1.80647 2.92561 1.80798 2.82315 1.81053 2.72072C1.81551 2.54134 1.82525 2.33184 1.86081 2.13479C1.88667 1.97871 1.936 1.82744 2.00712 1.68612C2.07598 1.55067 2.16567 1.42701 2.27438 1.31852C2.38213 1.2106 2.50627 1.1204 2.6422 1.05126C2.7835 0.980277 2.93468 0.930954 3.09065 0.904952C3.28656 0.869846 3.49652 0.860107 3.67635 0.855124C3.77873 0.852406 3.88133 0.851273 3.98302 0.850594L4.36284 0.849915H35.1372Z" fill="white"/>
<path d="M10.8597 8.15146C11.1777 7.75397 11.3933 7.22013 11.3365 6.67474C10.8713 6.69785 10.3037 6.98164 9.97481 7.37958C9.67969 7.72022 9.41855 8.27625 9.4865 8.79877C10.0088 8.84406 10.5306 8.53785 10.8597 8.15146Z" fill="black"/>
<path d="M11.3306 8.90093C10.5718 8.85563 9.92725 9.33126 9.56509 9.33126C9.20271 9.33126 8.64803 8.92358 8.04806 8.93468C7.26735 8.946 6.54304 9.38766 6.14668 10.0898C5.33177 11.494 5.93151 13.5777 6.72423 14.7215C7.10903 15.2877 7.57289 15.9106 8.18396 15.8881C8.7615 15.8655 8.98777 15.5144 9.68943 15.5144C10.3909 15.5144 10.5947 15.8881 11.206 15.8768C11.8397 15.8655 12.2361 15.3106 12.6209 14.7444C13.0625 14.0989 13.2431 13.476 13.2544 13.4421C13.2431 13.4307 12.0322 12.9662 12.0209 11.5733C12.0096 10.4069 12.9717 9.85196 13.017 9.81776C12.4737 9.01417 11.6248 8.92358 11.3304 8.90093" fill="black"/>
<path d="M18.8922 7.32251C20.5406 7.32251 21.6886 8.45881 21.6886 10.1131C21.6886 11.7733 20.517 12.9155 18.8509 12.9155H17.0259V15.8181H15.7073V7.32251H18.8922ZM17.0259 11.8086H18.5388C19.6871 11.8086 20.3403 11.1905 20.3403 10.119C20.3403 9.04768 19.6869 8.43525 18.5447 8.43525H17.0259V11.8086Z" fill="black"/>
<path d="M22.0157 14.0576C22.0157 12.9685 22.8458 12.3445 24.3764 12.2503L26.0189 12.1502V11.6791C26.0189 10.9905 25.5657 10.6136 24.7592 10.6136C24.0937 10.6136 23.6109 10.955 23.5112 11.4788H22.3217C22.3572 10.3781 23.3932 9.57745 24.7945 9.57745C26.3016 9.57745 27.2848 10.3663 27.2848 11.5909V15.8179H26.0662V14.7994H26.0368C25.6894 15.4646 24.9238 15.8825 24.0937 15.8825C22.8693 15.8825 22.0157 15.1527 22.0157 14.0576ZM26.0189 13.5102V13.0332L24.5531 13.1275C23.7286 13.1805 23.2992 13.4864 23.2992 14.0221C23.2992 14.5403 23.7465 14.876 24.4471 14.876C25.3417 14.876 26.0189 14.3047 26.0189 13.5102Z" fill="black"/>
<path d="M28.4052 18.0903V17.072C28.4876 17.0835 28.6876 17.0953 28.7936 17.0953C29.3764 17.0953 29.7062 16.8484 29.9064 16.2122L30.0241 15.8356L27.7928 9.65399H29.1703L30.7247 14.6698H30.7541L32.3083 9.65399H33.6507L31.3369 16.1475C30.8069 17.6371 30.2006 18.1258 28.9173 18.1258C28.8172 18.1258 28.4933 18.1141 28.4052 18.0903Z" fill="black"/>
</g>
<defs>
<clipPath id="clip0_9_125">
<rect width="38" height="24" fill="white" transform="translate(0.75 0.0499268)"/>
</clipPath>
</defs>
</svg>
