<svg width="39" height="25" viewBox="0 0 39 25" fill="none" xmlns="http://www.w3.org/2000/svg">
<g clip-path="url(#clip0_9_142)">
<path opacity="0.07" d="M35.75 0.0499268H3.75C2.05 0.0499268 0.75 1.34993 0.75 3.04993V21.0499C0.75 22.7499 2.15 24.0499 3.75 24.0499H35.75C37.45 24.0499 38.75 22.7499 38.75 21.0499V3.04993C38.75 1.34993 37.35 0.0499268 35.75 0.0499268Z" fill="black"/>
<path d="M35.75 1.04993C36.85 1.04993 37.75 1.94993 37.75 3.04993V21.0499C37.75 22.1499 36.85 23.0499 35.75 23.0499H3.75C2.65 23.0499 1.75 22.1499 1.75 21.0499V3.04993C1.75 1.94993 2.65 1.04993 3.75 1.04993H35.75Z" fill="white"/>
<path d="M4.32 7.2099H2.75V12.7099H4.32C5.15 12.7099 5.75 12.5099 6.28 12.0799C6.91 11.5599 7.28 10.7799 7.28 9.9699C7.27 8.3399 6.06 7.2099 4.32 7.2099ZM5.58 11.3499C5.24 11.6499 4.81 11.7899 4.11 11.7899H3.82V8.14991H4.11C4.8 8.14991 5.22 8.2699 5.58 8.5899C5.95 8.9199 6.17 9.4299 6.17 9.9599C6.17 10.4899 5.95 11.0199 5.58 11.3499ZM7.77 7.2099H8.84V12.7099H7.77V7.2099ZM11.46 9.31991C10.82 9.07991 10.63 8.9199 10.63 8.6299C10.63 8.2799 10.97 8.0199 11.43 8.0199C11.75 8.0199 12.02 8.1499 12.29 8.4699L12.85 7.7399C12.39 7.3399 11.84 7.1299 11.23 7.1299C10.26 7.1299 9.51 7.8099 9.51 8.7099C9.51 9.4699 9.86 9.8599 10.86 10.2199C11.28 10.3699 11.49 10.4699 11.6 10.5299C11.81 10.6699 11.92 10.8699 11.92 11.0999C11.92 11.5499 11.57 11.8799 11.09 11.8799C10.58 11.8799 10.17 11.6199 9.92 11.1499L9.23 11.8199C9.72 12.5499 10.32 12.8699 11.13 12.8699C12.24 12.8699 13.03 12.1299 13.03 11.0599C13.05 10.1699 12.68 9.76991 11.46 9.31991ZM13.38 9.9699C13.38 11.5899 14.65 12.8399 16.28 12.8399C16.74 12.8399 17.14 12.7499 17.62 12.5199V11.2599C17.19 11.6899 16.81 11.8599 16.33 11.8599C15.25 11.8599 14.48 11.0799 14.48 9.9599C14.48 8.8999 15.27 8.06991 16.28 8.06991C16.79 8.06991 17.18 8.24991 17.62 8.68991V7.4299C17.15 7.1899 16.76 7.0899 16.3 7.0899C14.69 7.0899 13.38 8.3699 13.38 9.9699ZM26.14 10.9099L24.67 7.2099H23.5L25.83 12.8499H26.41L28.78 7.2099H27.62L26.14 10.9099ZM29.27 12.7099H32.31V11.7799H30.34V10.2999H32.24V9.3699H30.34V8.14991H32.31V7.2099H29.27V12.7099ZM36.56 8.8399C36.56 7.8099 35.85 7.2199 34.61 7.2199H33.02V12.7199H34.09V10.5099H34.23L35.71 12.7199H37.03L35.3 10.3999C36.11 10.2299 36.56 9.6799 36.56 8.8399ZM34.4 9.7499H34.09V8.0799H34.42C35.09 8.0799 35.45 8.35991 35.45 8.89991C35.45 9.44991 35.09 9.7499 34.4 9.7499Z" fill="#231F20"/>
<path d="M20.91 12.9099C21.6874 12.9099 22.4329 12.6011 22.9825 12.0514C23.5322 11.5018 23.841 10.7563 23.841 9.97891C23.841 9.20156 23.5322 8.45605 22.9825 7.90638C22.4329 7.35671 21.6874 7.04791 20.91 7.04791C20.1327 7.04791 19.3871 7.35671 18.8375 7.90638C18.2878 8.45605 17.979 9.20156 17.979 9.97891C17.979 10.7563 18.2878 11.5018 18.8375 12.0514C19.3871 12.6011 20.1327 12.9099 20.91 12.9099Z" fill="url(#paint0_linear_9_142)"/>
<path opacity="0.65" d="M20.91 12.9099C21.6874 12.9099 22.4329 12.6011 22.9825 12.0514C23.5322 11.5018 23.841 10.7563 23.841 9.97891C23.841 9.20156 23.5322 8.45605 22.9825 7.90638C22.4329 7.35671 21.6874 7.04791 20.91 7.04791C20.1327 7.04791 19.3871 7.35671 18.8375 7.90638C18.2878 8.45605 17.979 9.20156 17.979 9.97891C17.979 10.7563 18.2878 11.5018 18.8375 12.0514C19.3871 12.6011 20.1327 12.9099 20.91 12.9099Z" fill="url(#paint1_linear_9_142)"/>
<path d="M37.32 7.55594C37.32 7.45594 37.25 7.40594 37.14 7.40594H36.98V7.88594H37.1V7.69594L37.24 7.88594H37.38L37.22 7.68595C37.28 7.67595 37.32 7.62594 37.32 7.55594ZM37.12 7.62595H37.1V7.49594H37.12C37.18 7.49594 37.21 7.51594 37.21 7.55594C37.21 7.60594 37.18 7.62595 37.12 7.62595Z" fill="#231F20"/>
<path d="M37.16 7.22595C36.93 7.22595 36.74 7.41595 36.74 7.64595C36.74 7.87595 36.93 8.06595 37.16 8.06595C37.39 8.06595 37.58 7.87595 37.58 7.64595C37.58 7.41595 37.39 7.22595 37.16 7.22595ZM37.16 7.99595C36.98 7.99595 36.82 7.84595 36.82 7.64595C36.82 7.45595 36.97 7.29595 37.16 7.29595C37.34 7.29595 37.49 7.45595 37.49 7.64595C37.49 7.83595 37.34 7.99595 37.16 7.99595Z" fill="#231F20"/>
<path d="M37.75 13.0339C37.75 13.0339 27.84 19.9229 9.726 23.0499H35.749C36.2767 23.05 36.783 22.8414 37.1576 22.4698C37.5322 22.0982 37.7448 21.5936 37.749 21.0659L37.773 18.0459L37.75 13.0339Z" fill="#F48120"/>
</g>
<defs>
<linearGradient id="paint0_linear_9_142" x1="22.407" y1="12.3249" x2="20.382" y2="9.15391" gradientUnits="userSpaceOnUse">
<stop stop-color="#F89F20"/>
<stop offset="0.25" stop-color="#F79A20"/>
<stop offset="0.533" stop-color="#F68D20"/>
<stop offset="0.62" stop-color="#F58720"/>
<stop offset="0.723" stop-color="#F48120"/>
<stop offset="1" stop-color="#F37521"/>
</linearGradient>
<linearGradient id="paint1_linear_9_142" x1="22.088" y1="12.2819" x2="19.128" y2="6.49591" gradientUnits="userSpaceOnUse">
<stop stop-color="#F58720"/>
<stop offset="0.359" stop-color="#E16F27"/>
<stop offset="0.703" stop-color="#D4602C"/>
<stop offset="0.982" stop-color="#D05B2E"/>
</linearGradient>
<clipPath id="clip0_9_142">
<rect width="38" height="24" fill="white" transform="translate(0.75 0.0499268)"/>
</clipPath>
</defs>
</svg>
