<svg width="39" height="25" viewBox="0 0 39 25" fill="none" xmlns="http://www.w3.org/2000/svg">
<g clip-path="url(#clip0_9_137)">
<path opacity="0.07" d="M35.25 0.0499268H3.25C1.55 0.0499268 0.25 1.34993 0.25 3.04993V21.0499C0.25 22.7499 1.65 24.0499 3.25 24.0499H35.25C36.95 24.0499 38.25 22.7499 38.25 21.0499V3.04993C38.25 1.34993 36.85 0.0499268 35.25 0.0499268Z" fill="black"/>
<path d="M35.25 1.04993C36.35 1.04993 37.25 1.94993 37.25 3.04993V21.0499C37.25 22.1499 36.35 23.0499 35.25 23.0499H3.25C2.15 23.0499 1.25 22.1499 1.25 21.0499V3.04993C1.25 1.94993 2.15 1.04993 3.25 1.04993H35.25Z" fill="white"/>
<path d="M12.25 12.0499V15.7499C12.25 16.0499 12.05 16.0499 11.75 15.9499C9.85 15.1499 8.75 12.6499 9.45 10.5499C9.85 9.44993 10.65 8.54993 11.75 8.14993C12.15 7.94993 12.25 8.04993 12.25 8.34993V12.0499ZM14.25 12.0499V8.34993C14.25 8.04993 14.25 8.04993 14.55 8.14993C16.65 8.94993 17.75 11.4499 16.95 13.5499C16.55 14.6499 15.75 15.5499 14.65 15.9499C14.25 16.1499 14.25 16.0499 14.25 15.7499V12.0499ZM21.45 5.04993H13.25C17.05 5.04993 20.05 8.14993 20.05 12.0499C20.05 15.9499 17.05 19.0499 13.25 19.0499H21.45C25.25 19.0499 28.25 15.9499 28.25 12.0499C28.25 8.14993 25.25 5.04993 21.45 5.04993Z" fill="#3086C8"/>
</g>
<defs>
<clipPath id="clip0_9_137">
<rect width="38" height="24" fill="white" transform="translate(0.25 0.0499268)"/>
</clipPath>
</defs>
</svg>
