<svg width="39" height="25" viewBox="0 0 39 25" fill="none" xmlns="http://www.w3.org/2000/svg">
<g clip-path="url(#clip0_9_161)">
<path opacity="0.07" d="M35.75 0.0499268H3.75C2.05 0.0499268 0.75 1.34993 0.75 3.04993V21.0499C0.75 22.7499 2.15 24.0499 3.75 24.0499H35.75C37.45 24.0499 38.75 22.7499 38.75 21.0499V3.04993C38.75 1.34993 37.35 0.0499268 35.75 0.0499268Z" fill="black"/>
<path d="M35.75 1.04993C36.85 1.04993 37.75 1.94993 37.75 3.04993V21.0499C37.75 22.1499 36.85 23.0499 35.75 23.0499H3.75C2.65 23.0499 1.75 22.1499 1.75 21.0499V3.04993C1.75 1.94993 2.65 1.04993 3.75 1.04993H35.75Z" fill="white"/>
<path d="M15.75 19.0499C19.616 19.0499 22.75 15.9159 22.75 12.0499C22.75 8.18393 19.616 5.04993 15.75 5.04993C11.884 5.04993 8.75 8.18393 8.75 12.0499C8.75 15.9159 11.884 19.0499 15.75 19.0499Z" fill="#EB001B"/>
<path d="M23.75 19.0499C27.616 19.0499 30.75 15.9159 30.75 12.0499C30.75 8.18393 27.616 5.04993 23.75 5.04993C19.884 5.04993 16.75 8.18393 16.75 12.0499C16.75 15.9159 19.884 19.0499 23.75 19.0499Z" fill="#00A2E5"/>
<path d="M22.75 12.0499C22.75 9.64991 21.55 7.54991 19.75 6.34991C17.95 7.64991 16.75 9.74991 16.75 12.0499C16.75 14.3499 17.95 16.5499 19.75 17.7499C21.55 16.5499 22.75 14.4499 22.75 12.0499Z" fill="#7375CF"/>
</g>
<defs>
<clipPath id="clip0_9_161">
<rect width="38" height="24" fill="white" transform="translate(0.75 0.0499268)"/>
</clipPath>
</defs>
</svg>
