<svg width="39" height="25" viewBox="0 0 39 25" fill="none" xmlns="http://www.w3.org/2000/svg">
<g clip-path="url(#clip0_9_119)">
<path opacity="0.07" d="M35.25 0.0499268H3.25C1.55 0.0499268 0.25 1.34993 0.25 3.04993V21.0499C0.25 22.7499 1.65 24.0499 3.25 24.0499H35.25C36.95 24.0499 38.25 22.7499 38.25 21.0499V3.04993C38.25 1.34993 36.85 0.0499268 35.25 0.0499268Z" fill="black"/>
<path d="M35.25 1.04993C36.35 1.04993 37.25 1.94993 37.25 3.04993V21.0499C37.25 22.1499 36.35 23.0499 35.25 23.0499H3.25C2.15 23.0499 1.25 22.1499 1.25 21.0499V3.04993C1.25 1.94993 2.15 1.04993 3.25 1.04993H35.25Z" fill="#006FCF"/>
<path d="M9.221 10.3179L9.995 12.1939H8.453L9.221 10.3179ZM25.296 10.3959H22.319V11.2229H25.248V12.4619H22.325V13.3839H25.302V14.1229L27.379 11.8779L25.302 9.53793L25.296 10.3959ZM11.233 8.05593H15.228L16.115 9.99093L16.937 8.04993H27.307L28.385 9.23993L29.5 8.04993H34.263L30.744 11.9019L34.227 15.7299H29.393L28.315 14.5399L27.19 15.7299H10.28L9.786 14.5399H8.656L8.161 15.7299H4.25L7.536 8.04993H10.966L11.233 8.05593ZM19.896 9.13393H17.657L16.157 12.6699L14.532 9.13393H12.31V13.9439L10.25 9.13393H8.257L5.875 14.6459H7.43L7.924 13.4559H10.52L11.014 14.6459H13.734V10.7109L15.485 14.6519H16.675L18.415 10.7229V14.6529H19.873L19.897 9.13293L19.896 9.13393ZM29.236 11.9019L31.767 9.13393H29.945L28.344 10.8599L26.796 9.13393H20.902V14.6519H26.712L28.326 12.9139L29.874 14.6519H31.749L29.236 11.9019Z" fill="white"/>
</g>
<defs>
<clipPath id="clip0_9_119">
<rect width="38" height="24" fill="white" transform="translate(0.25 0.0499268)"/>
</clipPath>
</defs>
</svg>
