<svg width="39" height="25" viewBox="0 0 39 25" fill="none" xmlns="http://www.w3.org/2000/svg">
<g clip-path="url(#clip0_9_168)">
<path opacity="0.07" d="M35.25 0.0499268H3.25C1.55 0.0499268 0.25 1.34993 0.25 3.04993V21.0499C0.25 22.7499 1.65 24.0499 3.25 24.0499H35.25C36.95 24.0499 38.25 22.7499 38.25 21.0499V3.04993C38.25 1.34993 36.85 0.0499268 35.25 0.0499268Z" fill="black"/>
<path d="M35.25 1.04993C36.35 1.04993 37.25 1.94993 37.25 3.04993V21.0499C37.25 22.1499 36.35 23.0499 35.25 23.0499H3.25C2.15 23.0499 1.25 22.1499 1.25 21.0499V3.04993C1.25 1.94993 2.15 1.04993 3.25 1.04993H35.25Z" fill="white"/>
<path d="M15.25 19.0499C19.116 19.0499 22.25 15.9159 22.25 12.0499C22.25 8.18393 19.116 5.04993 15.25 5.04993C11.384 5.04993 8.25 8.18393 8.25 12.0499C8.25 15.9159 11.384 19.0499 15.25 19.0499Z" fill="#EB001B"/>
<path d="M23.25 19.0499C27.116 19.0499 30.25 15.9159 30.25 12.0499C30.25 8.18393 27.116 5.04993 23.25 5.04993C19.384 5.04993 16.25 8.18393 16.25 12.0499C16.25 15.9159 19.384 19.0499 23.25 19.0499Z" fill="#F79E1B"/>
<path d="M22.25 12.0499C22.25 9.64991 21.05 7.54991 19.25 6.34991C17.45 7.64991 16.25 9.74991 16.25 12.0499C16.25 14.3499 17.45 16.5499 19.25 17.7499C21.05 16.5499 22.25 14.4499 22.25 12.0499Z" fill="#FF5F00"/>
</g>
<defs>
<clipPath id="clip0_9_168">
<rect width="38" height="24" fill="white" transform="translate(0.25 0.0499268)"/>
</clipPath>
</defs>
</svg>
