<svg width="39" height="25" viewBox="0 0 39 25" fill="none" xmlns="http://www.w3.org/2000/svg">
<g clip-path="url(#clip0_9_152)">
<path opacity="0.07" d="M35.25 0.0499268H3.25C1.55 0.0499268 0.25 1.34993 0.25 3.04993V21.0499C0.25 22.7499 1.65 24.0499 3.25 24.0499H35.25C36.95 24.0499 38.25 22.7499 38.25 21.0499V3.04993C38.25 1.34993 36.85 0.0499268 35.25 0.0499268Z" fill="black"/>
<path d="M35.25 1.04993C36.35 1.04993 37.25 1.94993 37.25 3.04993V21.0499C37.25 22.1499 36.35 23.0499 35.25 23.0499H3.25C2.15 23.0499 1.25 22.1499 1.25 21.0499V3.04993C1.25 1.94993 2.15 1.04993 3.25 1.04993H35.25Z" fill="white"/>
<path d="M18.343 12.0259V15.2259H17.325V7.32591H20.016C20.3384 7.32045 20.6588 7.37878 20.9586 7.49754C21.2584 7.6163 21.5318 7.79314 21.763 8.01791C21.982 8.22231 22.1586 8.46786 22.2827 8.74055C22.4068 9.01323 22.4759 9.3077 22.4861 9.60712C22.4964 9.90653 22.4475 10.205 22.3423 10.4855C22.237 10.766 22.0776 11.0231 21.873 11.2419L21.763 11.3579C21.293 11.8049 20.665 12.0479 20.016 12.0319L18.343 12.0259ZM18.343 8.29391V11.0819H20.041C20.418 11.0939 20.782 10.9469 21.046 10.6779C21.2348 10.4811 21.3616 10.2331 21.4106 9.96475C21.4596 9.69641 21.4286 9.4196 21.3215 9.16874C21.2144 8.91788 21.0359 8.70404 20.8083 8.55383C20.5806 8.40362 20.3138 8.32367 20.041 8.32391L18.343 8.29391ZM24.827 9.64191C25.477 9.61191 26.113 9.82991 26.605 10.2549C27.05 10.6849 27.287 11.2849 27.255 11.9039V15.2379H26.286V14.4719H26.237C26.0632 14.7592 25.8175 14.9962 25.5241 15.1595C25.2307 15.3228 24.8997 15.4067 24.564 15.4029C24.0159 15.4207 23.4814 15.2302 23.068 14.8699C22.8721 14.7101 22.7152 14.5079 22.609 14.2785C22.5028 14.0492 22.4501 13.7986 22.455 13.5459C22.4435 13.2905 22.4931 13.036 22.5997 12.8037C22.7063 12.5713 22.8669 12.3677 23.068 12.2099C23.5614 11.8551 24.1586 11.6739 24.766 11.6949C25.283 11.6749 25.796 11.7879 26.256 12.0259V11.8179C26.2594 11.6459 26.2236 11.4755 26.1513 11.3194C26.0791 11.1633 25.9723 11.0256 25.839 10.9169C25.5713 10.6736 25.2207 10.5419 24.859 10.5489C24.5963 10.5464 24.3373 10.611 24.1066 10.7364C23.8758 10.8619 23.6808 11.0441 23.54 11.2659L22.645 10.7019C22.888 10.3537 23.2161 10.0735 23.5981 9.88796C23.98 9.70242 24.4031 9.61771 24.827 9.64191ZM23.54 13.5699C23.5376 13.6994 23.5671 13.8276 23.6258 13.943C23.6846 14.0584 23.7709 14.1577 23.877 14.2319C24.1 14.4079 24.377 14.5009 24.662 14.4949C25.091 14.4939 25.502 14.3249 25.808 14.0229C26.113 13.7369 26.286 13.3379 26.286 12.9199C25.901 12.6462 25.4333 12.5141 24.962 12.5459C24.5961 12.5315 24.2352 12.6345 23.932 12.8399C23.8119 12.9202 23.7134 13.0288 23.6451 13.1561C23.5767 13.2834 23.5406 13.4255 23.54 13.5699ZM32.826 9.81991L29.436 17.6099H28.388L29.669 14.8819L27.445 9.81991H28.548L30.16 13.7049L31.729 9.81991H32.826Z" fill="#5F6368"/>
<path d="M14.236 11.3339C14.236 11.0259 14.212 10.7179 14.163 10.4139H9.873V12.1609H12.324C12.2741 12.4386 12.1687 12.7033 12.014 12.9392C11.8594 13.1751 11.6587 13.3774 11.424 13.5339V14.6679H12.888C13.3331 14.2372 13.6831 13.718 13.9153 13.1438C14.1474 12.5695 14.2567 11.953 14.236 11.3339Z" fill="#4285F4"/>
<path d="M9.879 15.7709C10.9853 15.8013 12.0616 15.409 12.889 14.6739L11.423 13.5339C11.0707 13.7598 10.6716 13.9023 10.256 13.9507C9.84039 13.9992 9.4192 13.9522 9.02448 13.8133C8.62975 13.6745 8.27188 13.4475 7.97808 13.1495C7.68429 12.8516 7.4623 12.4906 7.329 12.0939H5.827V13.2639C6.20284 14.017 6.78104 14.6504 7.49675 15.0932C8.21246 15.536 9.03738 15.7707 9.879 15.7709Z" fill="#34A853"/>
<path d="M7.32899 12.0999C7.13879 11.5373 7.13879 10.9276 7.32899 10.3649V9.19495H5.82699C5.50678 9.8264 5.3399 10.5244 5.3399 11.2324C5.3399 11.9405 5.50678 12.6385 5.82699 13.2699L7.32899 12.0999Z" fill="#FBBC04"/>
<path d="M9.879 8.48993C10.526 8.47811 11.1515 8.72254 11.619 9.16993L12.919 7.87693C12.0901 7.09894 10.9906 6.67459 9.854 6.69393C9.01736 6.69813 8.19824 6.93394 7.48743 7.37521C6.77662 7.81649 6.2019 8.44599 5.827 9.19393L7.329 10.3649C7.50462 9.82501 7.84508 9.35374 8.3025 9.0174C8.75992 8.68107 9.31127 8.49659 9.879 8.48993Z" fill="#EA4335"/>
</g>
<defs>
<clipPath id="clip0_9_152">
<rect width="38" height="24" fill="white" transform="translate(0.25 0.0499268)"/>
</clipPath>
</defs>
</svg>
