<svg width="39" height="25" viewBox="0 0 39 25" fill="none" xmlns="http://www.w3.org/2000/svg">
<g clip-path="url(#clip0_9_386)">
<path opacity="0.07" d="M35.5 0.920044H3.5C1.8 0.920044 0.5 2.22004 0.5 3.92004V21.92C0.5 23.62 1.9 24.92 3.5 24.92H35.5C37.2 24.92 38.5 23.62 38.5 21.92V3.92004C38.5 2.22004 37.1 0.920044 35.5 0.920044Z" fill="black"/>
<path d="M35.5 1.92004C36.6 1.92004 37.5 2.82004 37.5 3.92004V21.92C37.5 23.02 36.6 23.92 35.5 23.92H3.5C2.4 23.92 1.5 23.02 1.5 21.92V3.92004C1.5 2.82004 2.4 1.92004 3.5 1.92004H35.5Z" fill="white"/>
<path d="M12.5 12.92V16.62C12.5 16.92 12.3 16.92 12 16.82C10.1 16.02 8.99998 13.52 9.69998 11.42C10.1 10.32 10.9 9.42004 12 9.02004C12.4 8.82004 12.5 8.92004 12.5 9.22004V12.92ZM14.5 12.92V9.22004C14.5 8.92004 14.5 8.92004 14.8 9.02004C16.9 9.82004 18 12.32 17.2 14.42C16.8 15.52 16 16.42 14.9 16.82C14.5 17.02 14.5 16.92 14.5 16.62V12.92ZM21.7 5.92004H13.5C17.3 5.92004 20.3 9.02004 20.3 12.92C20.3 16.82 17.3 19.92 13.5 19.92H21.7C25.5 19.92 28.5 16.82 28.5 12.92C28.5 9.02004 25.5 5.92004 21.7 5.92004Z" fill="#3086C8"/>
</g>
<defs>
<clipPath id="clip0_9_386">
<rect width="38" height="24" fill="white" transform="translate(0.5 0.920044)"/>
</clipPath>
</defs>
</svg>
