<svg width="39" height="25" viewBox="0 0 39 25" fill="none" xmlns="http://www.w3.org/2000/svg">
<g clip-path="url(#clip0_9_194)">
<path opacity="0.07" d="M35.25 0.0499268H3.25C1.55 0.0499268 0.25 1.34993 0.25 3.04993V21.0499C0.25 22.7499 1.65 24.0499 3.25 24.0499H35.25C36.95 24.0499 38.25 22.7499 38.25 21.0499V3.04993C38.25 1.34993 36.85 0.0499268 35.25 0.0499268Z" fill="black"/>
<path d="M35.25 1.04993C36.35 1.04993 37.25 1.94993 37.25 3.04993V21.0499C37.25 22.1499 36.35 23.0499 35.25 23.0499H3.25C2.15 23.0499 1.25 22.1499 1.25 21.0499V3.04993C1.25 1.94993 2.15 1.04993 3.25 1.04993H35.25Z" fill="white"/>
<path d="M28.55 10.1499H28.25C27.85 11.1499 27.55 11.6499 27.25 13.1499H29.15C28.85 11.6499 28.85 10.9499 28.55 10.1499ZM31.45 16.0499H29.75C29.65 16.0499 29.65 16.0499 29.55 15.9499L29.35 15.0499L29.25 14.8499H26.85C26.75 14.8499 26.65 14.8499 26.65 15.0499L26.35 15.9499C26.35 16.0499 26.25 16.0499 26.25 16.0499H24.15L24.35 15.5499L27.25 8.74993C27.25 8.24993 27.55 8.04993 28.05 8.04993H29.55C29.65 8.04993 29.75 8.04993 29.75 8.24993L31.15 14.7499C31.25 15.1499 31.35 15.4499 31.35 15.8499C31.45 15.9499 31.45 15.9499 31.45 16.0499ZM18.05 15.7499L18.45 13.9499C18.55 13.9499 18.65 14.0499 18.65 14.0499C19.35 14.3499 20.05 14.5499 20.75 14.4499C20.95 14.4499 21.25 14.3499 21.45 14.2499C21.95 14.0499 21.95 13.5499 21.55 13.1499C21.35 12.9499 21.05 12.8499 20.75 12.6499C20.35 12.4499 19.95 12.2499 19.65 11.9499C18.45 10.9499 18.85 9.54993 19.55 8.84993C20.15 8.44993 20.45 8.04993 21.25 8.04993C22.45 8.04993 23.75 8.04993 24.35 8.24993H24.45C24.35 8.84993 24.25 9.34993 24.05 9.94993C23.55 9.74993 23.05 9.54993 22.55 9.54993C22.25 9.54993 21.95 9.54993 21.65 9.64993C21.45 9.64993 21.35 9.74993 21.25 9.84993C21.05 10.0499 21.05 10.3499 21.25 10.5499L21.75 10.9499C22.15 11.1499 22.55 11.3499 22.85 11.5499C23.35 11.8499 23.85 12.3499 23.95 12.9499C24.15 13.8499 23.85 14.6499 23.05 15.2499C22.55 15.6499 22.35 15.8499 21.65 15.8499C20.25 15.8499 19.15 15.9499 18.25 15.6499C18.15 15.8499 18.15 15.8499 18.05 15.7499ZM14.55 16.0499C14.65 15.3499 14.65 15.3499 14.75 15.0499C15.25 12.8499 15.75 10.5499 16.15 8.34993C16.25 8.14993 16.25 8.04993 16.45 8.04993H18.25C18.05 9.24993 17.85 10.1499 17.55 11.2499C17.25 12.7499 16.95 14.2499 16.55 15.7499C16.55 15.9499 16.45 15.9499 16.25 15.9499M5.25 8.24993C5.25 8.14993 5.45 8.04993 5.55 8.04993H8.95C9.45 8.04993 9.85 8.34993 9.95 8.84993L10.85 13.2499C10.85 13.3499 10.85 13.3499 10.95 13.4499C10.95 13.3499 11.05 13.3499 11.05 13.3499L13.15 8.24993C13.05 8.14993 13.15 8.04993 13.25 8.04993H15.35C15.35 8.14993 15.35 8.14993 15.25 8.24993L12.15 15.5499C12.05 15.7499 12.05 15.8499 11.95 15.9499C11.85 16.0499 11.65 15.9499 11.45 15.9499H9.95C9.85 15.9499 9.75 15.9499 9.75 15.7499L8.15 9.54993C7.95 9.34993 7.65 9.04993 7.25 8.94993C6.65 8.64993 5.55 8.44993 5.35 8.44993L5.25 8.24993Z" fill="#142688"/>
</g>
<defs>
<clipPath id="clip0_9_194">
<rect width="38" height="24" fill="white" transform="translate(0.25 0.0499268)"/>
</clipPath>
</defs>
</svg>
