<svg width="39" height="25" viewBox="0 0 39 25" fill="none" xmlns="http://www.w3.org/2000/svg">
<g clip-path="url(#clip0_9_187)">
<path d="M18.45 0.0499268V24.0499H11.25C9.95 24.0499 9.15 23.0499 9.45 21.7499L13.85 2.34993C14.15 1.04993 15.75 0.0499268 17.05 0.0499268H18.45ZM31.05 0.0499268C29.75 0.0499268 28.15 1.04993 27.85 2.34993L23.35 21.7499C23.05 23.0499 23.85 24.0499 25.15 24.0499H20.25V0.0499268H31.05Z" fill="#005B9A"/>
<path d="M17.05 0.0499268C15.75 0.0499268 14.15 1.14993 13.85 2.34993L9.45001 21.7499C9.15001 23.0499 9.95001 24.0499 11.25 24.0499H2.35001C1.55001 24.0499 0.850006 23.4499 0.850006 22.6499V1.64993C0.850006 0.849927 1.55001 0.0499268 2.35001 0.0499268H17.05Z" fill="#E9292D"/>
<path d="M31.05 0.0499268C29.75 0.0499268 28.15 1.14993 27.85 2.34993L23.45 21.7499C23.15 23.0499 23.95 24.0499 25.25 24.0499H10.75H11.25C9.95 24.0499 9.15 23.0499 9.45 21.7499L13.85 2.34993C14.15 1.04993 15.75 0.0499268 17.05 0.0499268H31.05Z" fill="#0E73B9"/>
<path d="M38.75 1.64993V22.6499C38.75 23.4499 38.15 24.0499 37.25 24.0499H25.15C23.85 24.0499 23.05 22.9499 23.35 21.7499L27.85 2.34993C28.15 1.04993 29.75 0.0499268 31.05 0.0499268H37.25C38.15 0.0499268 38.75 0.749927 38.75 1.64993Z" fill="#059DA4"/>
<path d="M15.628 13.6949H15.768C15.908 13.6949 16.048 13.6249 16.048 13.5549L16.468 12.9249H17.658L17.448 13.2749H18.848L18.638 13.9049H16.958C16.748 14.1849 16.538 14.3249 16.258 14.3249H15.418L15.628 13.6949ZM15.418 14.6049H18.428L18.218 15.3049H17.028L16.818 16.0049H18.008L17.798 16.7049H16.608L16.328 17.7549C16.258 17.8949 16.328 18.0349 16.608 17.9649H17.588L17.378 18.6649H15.488C15.138 18.6649 14.998 18.4549 15.138 18.0349L15.488 16.7049H14.718L14.928 16.0049H15.698L15.908 15.3049H15.208L15.418 14.6049ZM20.248 12.8549V13.2749C20.248 13.2749 20.808 12.8549 21.368 12.8549H23.328L22.558 15.5149C22.488 15.7949 22.208 16.0049 21.788 16.0049H19.548L19.058 17.8949C19.058 17.9649 19.058 18.0349 19.198 18.0349H19.618L19.478 18.5949H18.358C17.938 18.5949 17.798 18.4549 17.868 18.2449L19.338 12.8549H20.248ZM21.928 13.6249H20.178L19.968 14.3249C19.968 14.3249 20.248 14.1149 20.738 14.1149H21.788L21.928 13.6249ZM21.298 15.3049C21.438 15.3049 21.508 15.3049 21.508 15.1649L21.648 14.8149H19.898L19.758 15.3749L21.298 15.3049ZM20.108 16.1449H21.088V16.5649H21.368C21.508 16.5649 21.578 16.4949 21.578 16.4249L21.648 16.1449H22.488L22.348 16.6349C22.278 16.9849 21.998 17.1249 21.578 17.1949H21.018V17.9649C21.018 18.1049 21.088 18.1749 21.368 18.1749H21.858L21.718 18.7349H20.528C20.178 18.7349 20.038 18.5949 20.038 18.2449L20.108 16.1449ZM24.308 13.6949L24.518 12.8549H25.708L25.638 13.1349C25.638 13.1349 26.198 12.8549 26.688 12.8549H28.158L27.948 13.6949H27.738L26.618 17.5449H26.828L26.618 18.3149H26.408L26.338 18.6649H25.148L25.218 18.3149H23.048L23.258 17.5449H23.468L24.588 13.6949H24.308ZM25.568 13.6949L25.288 14.7449C25.288 14.7449 25.778 14.5349 26.198 14.4649C26.268 14.1149 26.408 13.6949 26.408 13.6949H25.568ZM25.078 15.2349L24.798 16.3549C24.798 16.3549 25.358 16.0749 25.778 16.0749C25.918 15.6549 25.988 15.3049 25.988 15.3049L25.078 15.2349ZM25.288 17.5449L25.498 16.7749H24.658L24.448 17.5449H25.288ZM28.158 12.8549H29.278L29.348 13.2749C29.348 13.3449 29.418 13.4149 29.558 13.4149H29.768L29.558 14.1149H28.788C28.508 14.1149 28.298 14.0449 28.298 13.7649L28.158 12.8549ZM27.808 14.3249H31.378L31.168 15.0949H29.978L29.768 15.7949H30.888L30.678 16.5649H29.418L29.138 16.9849H29.768L29.908 17.8249C29.908 17.8949 29.978 17.9649 30.118 17.9649H30.328L30.118 18.6649H29.418C29.068 18.6649 28.858 18.5949 28.858 18.3149L28.718 17.5449L28.158 18.3849C28.018 18.5949 27.808 18.7349 27.528 18.7349H26.478L26.688 18.0349H27.038C27.178 18.0349 27.248 17.9649 27.388 17.8249L28.228 16.5649H27.178L27.388 15.7949H28.578L28.788 15.0949H27.598L27.808 14.3249ZM8.06799 9.28493C7.92799 9.98493 7.64799 10.4749 7.15799 10.8249C6.66799 11.1749 6.03799 11.3849 5.26799 11.3849C4.56799 11.3849 4.00799 11.1749 3.72799 10.8249C3.51799 10.5449 3.37799 10.2649 3.37799 9.84493C3.37799 9.70493 3.37799 9.49493 3.44799 9.28493L4.28799 5.36493H5.47799L4.70799 9.28493V9.56493C4.70799 9.77493 4.77799 9.91493 4.84799 10.0549C4.98799 10.2649 5.19799 10.3349 5.54799 10.3349C5.89799 10.3349 6.24799 10.2649 6.45799 10.0549C6.66799 9.84493 6.87799 9.63493 6.94799 9.28493L7.71799 5.36493H8.90799L8.06799 9.28493ZM9.18799 7.74493H10.028L9.95799 8.23493L10.098 8.09493C10.378 7.81493 10.728 7.67493 11.148 7.67493C11.498 7.67493 11.778 7.81493 11.918 8.02493C12.058 8.23493 12.128 8.51493 12.058 8.93493L11.568 11.3149H10.658L11.078 9.14493C11.148 8.86493 11.148 8.65493 11.078 8.58493C11.008 8.44493 10.868 8.44493 10.728 8.44493C10.518 8.44493 10.308 8.51493 10.168 8.65493C10.028 8.79493 9.88799 9.00493 9.88799 9.28493L9.46799 11.3149H8.55799L9.18799 7.74493ZM18.988 7.74493H19.828L19.758 8.23493L19.898 8.09493C20.178 7.81493 20.528 7.67493 20.948 7.67493C21.298 7.67493 21.578 7.81493 21.718 8.02493C21.858 8.23493 21.928 8.51493 21.858 8.93493L21.368 11.3149H20.458L20.878 9.07493C20.948 8.86493 20.878 8.65493 20.808 8.58493C20.738 8.44493 20.598 8.44493 20.458 8.44493C20.248 8.44493 20.038 8.51493 19.898 8.65493C19.758 8.79493 19.618 9.00493 19.618 9.28493L19.198 11.3149H18.288L18.988 7.74493ZM13.178 7.74493H14.158L13.388 11.2449H12.408L13.178 7.74493ZM13.528 6.41493H14.508L14.298 7.25493H13.318L13.528 6.41493ZM14.928 10.9649C14.718 10.7549 14.578 10.4049 14.578 9.98493V9.77493C14.578 9.70493 14.578 9.56493 14.648 9.49493C14.788 8.93493 14.998 8.44493 15.348 8.16493C15.698 7.81493 16.188 7.67493 16.678 7.67493C17.098 7.67493 17.448 7.81493 17.728 8.02493C17.938 8.23493 18.078 8.58493 18.078 9.00493V9.21493C18.078 9.28493 18.078 9.42493 18.008 9.49493C17.868 10.0549 17.658 10.4749 17.308 10.8249C16.958 11.1749 16.468 11.3149 15.978 11.3149C15.628 11.3149 15.278 11.1749 14.928 10.9649ZM16.818 10.2649C16.958 10.0549 17.098 9.77493 17.168 9.42493V9.07493C17.168 8.86493 17.098 8.72493 17.028 8.58493C16.9664 8.5165 16.8907 8.46228 16.8061 8.42602C16.7215 8.38976 16.63 8.37232 16.538 8.37493C16.258 8.37493 16.048 8.44493 15.908 8.65493C15.768 8.86493 15.628 9.14493 15.558 9.49493V9.77493C15.558 9.98493 15.628 10.1249 15.698 10.2649C15.838 10.4049 15.978 10.4749 16.188 10.4749C16.468 10.5449 16.608 10.4749 16.818 10.2649ZM23.328 5.57493H25.848C26.338 5.57493 26.688 5.71493 26.968 5.92493C27.248 6.13493 27.318 6.48493 27.318 6.83493V7.11493C27.318 7.18493 27.318 7.32493 27.248 7.39493C27.178 7.88493 26.898 8.37493 26.548 8.65493C26.128 9.00493 25.708 9.14493 25.148 9.14493H23.748L23.328 11.1749H22.138L23.328 5.57493ZM23.888 8.16493H25.008C25.288 8.16493 25.498 8.09493 25.708 7.95493C25.848 7.81493 25.988 7.60493 26.058 7.32493V7.04493C26.058 6.83493 25.988 6.69493 25.848 6.62493C25.708 6.55493 25.498 6.48493 25.148 6.48493H24.238L23.888 8.16493ZM32.568 11.8749C32.218 12.6449 31.868 13.1349 31.658 13.3449C31.448 13.5549 31.028 14.0449 30.048 14.0449L30.118 13.4149C30.958 13.1349 31.378 12.0149 31.658 11.4549L31.378 7.67493H32.568L32.638 10.0549L33.548 7.74493H34.598L32.568 11.8749ZM29.628 8.02493L29.208 8.30493C28.788 7.95493 28.368 7.74493 27.668 8.09493C26.688 8.58493 25.778 12.2249 28.578 11.0349L28.718 11.2449H29.838L30.538 7.95493L29.628 8.02493ZM29.068 9.84493C28.858 10.4049 28.508 10.6849 28.158 10.6149C27.878 10.4749 27.808 9.98493 27.948 9.42493C28.158 8.86493 28.508 8.58493 28.858 8.65493C29.138 8.79493 29.208 9.28493 29.068 9.84493Z" fill="white"/>
</g>
<defs>
<clipPath id="clip0_9_187">
<rect width="38" height="24" fill="white" transform="translate(0.75 0.0499268)"/>
</clipPath>
</defs>
</svg>
