<svg width="38" height="25" viewBox="0 0 38 25" fill="none" xmlns="http://www.w3.org/2000/svg">
<g clip-path="url(#clip0_9_391)">
<path opacity="0.07" d="M35 0.920044H3C1.3 0.920044 0 2.22004 0 3.92004V21.92C0 23.62 1.4 24.92 3 24.92H35C36.7 24.92 38 23.62 38 21.92V3.92004C38 2.22004 36.6 0.920044 35 0.920044Z" fill="black"/>
<path d="M35 1.92004C36.1 1.92004 37 2.82004 37 3.92004V21.92C37 23.02 36.1 23.92 35 23.92H3C1.9 23.92 1 23.02 1 21.92V3.92004C1 2.82004 1.9 1.92004 3 1.92004H35Z" fill="white"/>
<path d="M3.57 8.08005H2V13.5801H3.57C4.4 13.5801 5 13.3801 5.53 12.9501C6.16 12.4301 6.53 11.6501 6.53 10.8401C6.52 9.21005 5.31 8.08005 3.57 8.08005ZM4.83 12.2201C4.49 12.5201 4.06 12.6601 3.36 12.6601H3.07V9.02005H3.36C4.05 9.02005 4.47 9.14005 4.83 9.46005C5.2 9.79005 5.42 10.3001 5.42 10.8301C5.42 11.3601 5.2 11.8901 4.83 12.2201ZM7.02 8.08005H8.09V13.5801H7.02V8.08005ZM10.71 10.1901C10.07 9.95005 9.88 9.79005 9.88 9.50005C9.88 9.15005 10.22 8.89005 10.68 8.89005C11 8.89005 11.27 9.02005 11.54 9.34005L12.1 8.61005C11.64 8.21005 11.09 8.00005 10.48 8.00005C9.51 8.00005 8.76 8.68005 8.76 9.58005C8.76 10.3401 9.11 10.7301 10.11 11.0901C10.53 11.2401 10.74 11.3401 10.85 11.4001C11.06 11.5401 11.17 11.7401 11.17 11.9701C11.17 12.4201 10.82 12.7501 10.34 12.7501C9.83 12.7501 9.42 12.4901 9.17 12.0201L8.48 12.6901C8.97 13.4201 9.57 13.7401 10.38 13.7401C11.49 13.7401 12.28 13.0001 12.28 11.9301C12.3 11.0401 11.93 10.6401 10.71 10.1901ZM12.63 10.8401C12.63 12.4601 13.9 13.7101 15.53 13.7101C15.99 13.7101 16.39 13.6201 16.87 13.3901V12.1301C16.44 12.5601 16.06 12.7301 15.58 12.7301C14.5 12.7301 13.73 11.9501 13.73 10.8301C13.73 9.77005 14.52 8.94005 15.53 8.94005C16.04 8.94005 16.43 9.12005 16.87 9.56005V8.30005C16.4 8.06005 16.01 7.96005 15.55 7.96005C13.94 7.96005 12.63 9.24005 12.63 10.8401ZM25.39 11.7801L23.92 8.08005H22.75L25.08 13.7201H25.66L28.03 8.08005H26.87L25.39 11.7801ZM28.52 13.5801H31.56V12.6501H29.59V11.1701H31.49V10.2401H29.59V9.02005H31.56V8.08005H28.52V13.5801ZM35.81 9.71005C35.81 8.68005 35.1 8.09005 33.86 8.09005H32.27V13.5901H33.34V11.3801H33.48L34.96 13.5901H36.28L34.55 11.2701C35.36 11.1001 35.81 10.5501 35.81 9.71005ZM33.65 10.6201H33.34V8.95005H33.67C34.34 8.95005 34.7 9.23005 34.7 9.77005C34.7 10.3201 34.34 10.6201 33.65 10.6201Z" fill="#231F20"/>
<path d="M20.16 13.78C20.9374 13.78 21.6829 13.4712 22.2325 12.9216C22.7822 12.3719 23.091 11.6264 23.091 10.849C23.091 10.0717 22.7822 9.32617 22.2325 8.7765C21.6829 8.22683 20.9374 7.91803 20.16 7.91803C19.3827 7.91803 18.6371 8.22683 18.0875 8.7765C17.5378 9.32617 17.229 10.0717 17.229 10.849C17.229 11.6264 17.5378 12.3719 18.0875 12.9216C18.6371 13.4712 19.3827 13.78 20.16 13.78Z" fill="url(#paint0_linear_9_391)"/>
<path opacity="0.65" d="M20.16 13.78C20.9374 13.78 21.6829 13.4712 22.2325 12.9216C22.7822 12.3719 23.091 11.6264 23.091 10.849C23.091 10.0717 22.7822 9.32617 22.2325 8.7765C21.6829 8.22683 20.9374 7.91803 20.16 7.91803C19.3827 7.91803 18.6371 8.22683 18.0875 8.7765C17.5378 9.32617 17.229 10.0717 17.229 10.849C17.229 11.6264 17.5378 12.3719 18.0875 12.9216C18.6371 13.4712 19.3827 13.78 20.16 13.78Z" fill="url(#paint1_linear_9_391)"/>
<path d="M36.57 8.42603C36.57 8.32603 36.5 8.27603 36.39 8.27603H36.23V8.75603H36.35V8.56603L36.49 8.75603H36.63L36.47 8.55603C36.53 8.54603 36.57 8.49603 36.57 8.42603ZM36.37 8.49603H36.35V8.36603H36.37C36.43 8.36603 36.46 8.38603 36.46 8.42603C36.46 8.47603 36.43 8.49603 36.37 8.49603Z" fill="#231F20"/>
<path d="M36.41 8.09604C36.18 8.09604 35.99 8.28604 35.99 8.51604C35.99 8.74604 36.18 8.93604 36.41 8.93604C36.64 8.93604 36.83 8.74604 36.83 8.51604C36.83 8.28604 36.64 8.09604 36.41 8.09604ZM36.41 8.86604C36.23 8.86604 36.07 8.71604 36.07 8.51604C36.07 8.32604 36.22 8.16604 36.41 8.16604C36.59 8.16604 36.74 8.32604 36.74 8.51604C36.74 8.70604 36.59 8.86604 36.41 8.86604Z" fill="#231F20"/>
<path d="M37.0001 13.9041C37.0001 13.9041 27.0901 20.7931 8.97607 23.9201H34.9991C35.5267 23.9201 36.033 23.7116 36.4077 23.3399C36.7823 22.9683 36.9949 22.4637 36.9991 21.9361L37.0231 18.9161L37.0001 13.9041Z" fill="#F48120"/>
</g>
<defs>
<linearGradient id="paint0_linear_9_391" x1="21.657" y1="13.195" x2="19.632" y2="10.024" gradientUnits="userSpaceOnUse">
<stop stop-color="#F89F20"/>
<stop offset="0.25" stop-color="#F79A20"/>
<stop offset="0.533" stop-color="#F68D20"/>
<stop offset="0.62" stop-color="#F58720"/>
<stop offset="0.723" stop-color="#F48120"/>
<stop offset="1" stop-color="#F37521"/>
</linearGradient>
<linearGradient id="paint1_linear_9_391" x1="21.338" y1="13.152" x2="18.378" y2="7.36603" gradientUnits="userSpaceOnUse">
<stop stop-color="#F58720"/>
<stop offset="0.359" stop-color="#E16F27"/>
<stop offset="0.703" stop-color="#D4602C"/>
<stop offset="0.982" stop-color="#D05B2E"/>
</linearGradient>
<clipPath id="clip0_9_391">
<rect width="38" height="24" fill="white" transform="translate(0 0.920044)"/>
</clipPath>
</defs>
</svg>
