<svg width="39" height="25" viewBox="0 0 39 25" fill="none" xmlns="http://www.w3.org/2000/svg">
<g clip-path="url(#clip0_9_401)">
<path opacity="0.07" d="M35.5 0.920044H3.5C1.8 0.920044 0.5 2.22004 0.5 3.92004V21.92C0.5 23.62 1.9 24.92 3.5 24.92H35.5C37.2 24.92 38.5 23.62 38.5 21.92V3.92004C38.5 2.22004 37.1 0.920044 35.5 0.920044Z" fill="black"/>
<path d="M35.5 1.92004C36.6 1.92004 37.5 2.82004 37.5 3.92004V21.92C37.5 23.02 36.6 23.92 35.5 23.92H3.5C2.4 23.92 1.5 23.02 1.5 21.92V3.92004C1.5 2.82004 2.4 1.92004 3.5 1.92004H35.5Z" fill="white"/>
<path d="M18.593 12.896V16.096H17.575V8.19603H20.266C20.5884 8.19057 20.9087 8.2489 21.2085 8.36766C21.5083 8.48641 21.7817 8.66326 22.013 8.88803C22.232 9.09242 22.4086 9.33798 22.5327 9.61067C22.6568 9.88335 22.7259 10.1778 22.7361 10.4772C22.7463 10.7766 22.6974 11.0751 22.5922 11.3556C22.487 11.6362 22.3275 11.8932 22.1229 12.112L22.013 12.228C21.543 12.675 20.915 12.918 20.266 12.902L18.593 12.896ZM18.593 9.16403V11.952H20.291C20.668 11.964 21.0319 11.817 21.2959 11.548C21.4848 11.3512 21.6116 11.1032 21.6606 10.8349C21.7096 10.5665 21.6786 10.2897 21.5715 10.0389C21.4644 9.788 21.2859 9.57416 21.0582 9.42395C20.8305 9.27374 20.5637 9.19378 20.291 9.19403L18.593 9.16403ZM25.077 10.512C25.7269 10.482 26.363 10.7 26.8549 11.125C27.2999 11.555 27.5369 12.155 27.5049 12.774V16.108H26.5359V15.342H26.4869C26.3132 15.6293 26.0674 15.8663 25.774 16.0296C25.4806 16.1929 25.1497 16.2768 24.8139 16.273C24.2658 16.2908 23.7314 16.1003 23.318 15.74C23.1221 15.5803 22.9651 15.378 22.8589 15.1487C22.7527 14.9193 22.7001 14.6688 22.705 14.416C22.6934 14.1606 22.743 13.9062 22.8496 13.6738C22.9563 13.4414 23.1168 13.2378 23.318 13.08C23.8114 12.7252 24.4086 12.5441 25.016 12.565C25.533 12.545 26.046 12.658 26.506 12.896V12.688C26.5093 12.5161 26.4735 12.3456 26.4013 12.1895C26.329 12.0334 26.2222 11.8958 26.089 11.787C25.8213 11.5437 25.4706 11.412 25.1089 11.419C24.8463 11.4166 24.5873 11.4811 24.3565 11.6066C24.1257 11.732 23.9307 11.9142 23.79 12.136L22.895 11.572C23.138 11.2238 23.4661 10.9436 23.848 10.7581C24.2299 10.5725 24.653 10.4878 25.077 10.512ZM23.79 14.44C23.7875 14.5695 23.817 14.6977 23.8758 14.8131C23.9346 14.9286 24.0208 15.0278 24.127 15.102C24.35 15.278 24.627 15.371 24.912 15.365C25.341 15.364 25.752 15.195 26.058 14.893C26.363 14.607 26.5359 14.208 26.5359 13.79C26.151 13.5163 25.6832 13.3842 25.212 13.416C24.846 13.4016 24.4851 13.5046 24.1819 13.71C24.0619 13.7904 23.9634 13.8989 23.895 14.0262C23.8267 14.1535 23.7906 14.2956 23.79 14.44ZM33.076 10.69L29.686 18.48H28.638L29.919 15.752L27.695 10.69H28.798L30.41 14.575L31.979 10.69H33.076Z" fill="#5F6368"/>
<path d="M14.486 12.2041C14.486 11.8961 14.462 11.5881 14.413 11.2841H10.123V13.0311H12.574C12.5241 13.3087 12.4187 13.5734 12.2641 13.8093C12.1094 14.0453 11.9087 14.2475 11.674 14.4041V15.5381H13.138C13.5832 15.1073 13.9331 14.5881 14.1653 14.0139C14.3975 13.4396 14.5067 12.8231 14.486 12.2041Z" fill="#4285F4"/>
<path d="M10.1289 16.6411C11.2352 16.6714 12.3116 16.2791 13.1389 15.5441L11.6729 14.4041C11.3207 14.6299 10.9215 14.7724 10.5059 14.8209C10.0903 14.8693 9.66911 14.8223 9.27439 14.6834C8.87966 14.5446 8.52179 14.3176 8.22799 14.0196C7.93419 13.7217 7.7122 13.3607 7.5789 12.9641H6.0769V14.1341C6.45275 14.8871 7.03095 15.5205 7.74666 15.9633C8.46237 16.4062 9.28728 16.6408 10.1289 16.6411Z" fill="#34A853"/>
<path d="M7.57893 12.97C7.38872 12.4073 7.38872 11.7977 7.57893 11.235V10.065H6.07693C5.75672 10.6965 5.58984 11.3945 5.58984 12.1025C5.58984 12.8105 5.75672 13.5086 6.07693 14.14L7.57893 12.97Z" fill="#FBBC04"/>
<path d="M10.1289 9.36005C10.7759 9.34823 11.4014 9.59266 11.8689 10.04L13.1689 8.74705C12.34 7.96906 11.2406 7.54471 10.1039 7.56405C9.26727 7.56825 8.44814 7.80405 7.73734 8.24533C7.02653 8.6866 6.45181 9.31611 6.0769 10.064L7.5789 11.235C7.75453 10.6951 8.09499 10.2239 8.55241 9.88752C9.00983 9.55118 9.56118 9.36671 10.1289 9.36005Z" fill="#EA4335"/>
</g>
<defs>
<clipPath id="clip0_9_401">
<rect width="38" height="24" fill="white" transform="translate(0.5 0.920044)"/>
</clipPath>
</defs>
</svg>
