<svg width="38" height="25" viewBox="0 0 38 25" fill="none" xmlns="http://www.w3.org/2000/svg">
<g clip-path="url(#clip0_9_410)">
<path opacity="0.07" d="M35 0.920044H3C1.3 0.920044 0 2.22004 0 3.92004V21.92C0 23.62 1.4 24.92 3 24.92H35C36.7 24.92 38 23.62 38 21.92V3.92004C38 2.22004 36.6 0.920044 35 0.920044Z" fill="black"/>
<path d="M35 1.92004C36.1 1.92004 37 2.82004 37 3.92004V21.92C37 23.02 36.1 23.92 35 23.92H3C1.9 23.92 1 23.02 1 21.92V3.92004C1 2.82004 1.9 1.92004 3 1.92004H35Z" fill="white"/>
<path d="M15 19.92C18.866 19.92 22 16.786 22 12.92C22 9.05405 18.866 5.92004 15 5.92004C11.134 5.92004 8 9.05405 8 12.92C8 16.786 11.134 19.92 15 19.92Z" fill="#EB001B"/>
<path d="M23 19.92C26.866 19.92 30 16.786 30 12.92C30 9.05405 26.866 5.92004 23 5.92004C19.134 5.92004 16 9.05405 16 12.92C16 16.786 19.134 19.92 23 19.92Z" fill="#00A2E5"/>
<path d="M22 12.92C22 10.52 20.8 8.42003 19 7.22003C17.2 8.52003 16 10.62 16 12.92C16 15.22 17.2 17.42 19 18.62C20.8 17.42 22 15.32 22 12.92Z" fill="#7375CF"/>
</g>
<defs>
<clipPath id="clip0_9_410">
<rect width="38" height="24" fill="white" transform="translate(0 0.920044)"/>
</clipPath>
</defs>
</svg>
