<svg width="39" height="25" viewBox="0 0 39 25" fill="none" xmlns="http://www.w3.org/2000/svg">
<g clip-path="url(#clip0_9_417)">
<path opacity="0.07" d="M35.5 0.920044H3.5C1.8 0.920044 0.5 2.22004 0.5 3.92004V21.92C0.5 23.62 1.9 24.92 3.5 24.92H35.5C37.2 24.92 38.5 23.62 38.5 21.92V3.92004C38.5 2.22004 37.1 0.920044 35.5 0.920044Z" fill="black"/>
<path d="M35.5 1.92004C36.6 1.92004 37.5 2.82004 37.5 3.92004V21.92C37.5 23.02 36.6 23.92 35.5 23.92H3.5C2.4 23.92 1.5 23.02 1.5 21.92V3.92004C1.5 2.82004 2.4 1.92004 3.5 1.92004H35.5Z" fill="white"/>
<path d="M15.5 19.92C19.366 19.92 22.5 16.786 22.5 12.92C22.5 9.05405 19.366 5.92004 15.5 5.92004C11.634 5.92004 8.5 9.05405 8.5 12.92C8.5 16.786 11.634 19.92 15.5 19.92Z" fill="#EB001B"/>
<path d="M23.5 19.92C27.366 19.92 30.5 16.786 30.5 12.92C30.5 9.05405 27.366 5.92004 23.5 5.92004C19.634 5.92004 16.5 9.05405 16.5 12.92C16.5 16.786 19.634 19.92 23.5 19.92Z" fill="#F79E1B"/>
<path d="M22.5 12.92C22.5 10.52 21.3 8.42003 19.5 7.22003C17.7 8.52003 16.5 10.62 16.5 12.92C16.5 15.22 17.7 17.42 19.5 18.62C21.3 17.42 22.5 15.32 22.5 12.92Z" fill="#FF5F00"/>
</g>
<defs>
<clipPath id="clip0_9_417">
<rect width="38" height="24" fill="white" transform="translate(0.5 0.920044)"/>
</clipPath>
</defs>
</svg>
