<svg width="38" height="25" viewBox="0 0 38 25" fill="none" xmlns="http://www.w3.org/2000/svg">
<g clip-path="url(#clip0_9_424)">
<path opacity="0.07" d="M35 0.920044H3C1.3 0.920044 0 2.22004 0 3.92004V21.92C0 23.62 1.4 24.92 3 24.92H35C36.7 24.92 38 23.62 38 21.92V3.92004C38 2.22004 36.6 0.920044 35 0.920044Z" fill="black"/>
<path d="M35 1.92004C36.1 1.92004 37 2.82004 37 3.92004V21.92C37 23.02 36.1 23.92 35 23.92H3C1.9 23.92 1 23.02 1 21.92V3.92004C1 2.82004 1.9 1.92004 3 1.92004H35Z" fill="white"/>
<path d="M23.9 9.22004C24.1 8.22004 23.9 7.52004 23.3 6.92004C22.7 6.22004 21.6 5.92004 20.2 5.92004H16.1C15.8 5.92004 15.6 6.12004 15.5 6.42004L14 16.52C14 16.72 14.1 16.92 14.3 16.92H17L17.4 13.52L19.2 11.32L23.9 9.22004Z" fill="#003087"/>
<path d="M23.9001 9.22003L23.7001 9.42003C23.2001 12.22 21.5001 13.22 19.1001 13.22H18.0001C17.7001 13.22 17.5001 13.42 17.4001 13.72L16.8001 17.62L16.6001 18.62C16.6001 18.82 16.7001 19.02 16.9001 19.02H19.0001C19.3001 19.02 19.5001 18.82 19.5001 18.62V18.52L19.9001 16.12V16.02C19.9001 15.82 20.2001 15.62 20.4001 15.62H20.7001C22.8001 15.62 24.4001 14.82 24.8001 12.42C25.0001 11.42 24.9001 10.62 24.4001 10.02C24.3001 9.52003 24.1001 9.32003 23.9001 9.22003Z" fill="#3086C8"/>
<path d="M23.2999 9.02003C23.1999 8.92003 23.0999 8.92003 22.9999 8.92003C22.8999 8.92003 22.7999 8.92003 22.6999 8.82003C22.3999 8.72003 21.9999 8.72003 21.5999 8.72003H18.5999C18.4999 8.72003 18.3999 8.72003 18.3999 8.82003C18.1999 8.92003 18.0999 9.02003 18.0999 9.22003L17.3999 13.62V13.72C17.3999 13.42 17.6999 13.22 17.9999 13.22H19.2999C21.7999 13.22 23.3999 12.22 23.8999 9.42003V9.22003C23.7999 9.12003 23.5999 9.02003 23.3999 9.02003H23.2999Z" fill="#012169"/>
</g>
<defs>
<clipPath id="clip0_9_424">
<rect width="38" height="24" fill="white" transform="translate(0 0.920044)"/>
</clipPath>
</defs>
</svg>
