<svg width="39" height="25" viewBox="0 0 39 25" fill="none" xmlns="http://www.w3.org/2000/svg">
<g clip-path="url(#clip0_9_431)">
<path opacity="0.07" d="M35.5 0.920044H3.5C1.8 0.920044 0.5 2.22004 0.5 3.92004V21.92C0.5 23.62 1.9 24.92 3.5 24.92H35.5C37.2 24.92 38.5 23.62 38.5 21.92V3.92004C38.5 2.22004 37.1 0.920044 35.5 0.920044Z" fill="black"/>
<path d="M35.5 1.92004C36.6 1.92004 37.5 2.82004 37.5 3.92004V21.92C37.5 23.02 36.6 23.92 35.5 23.92H3.5C2.4 23.92 1.5 23.02 1.5 21.92V3.92004C1.5 2.82004 2.4 1.92004 3.5 1.92004H35.5Z" fill="#5A31F4"/>
<path d="M21.8821 10.633C21.8821 12.301 20.7051 13.491 19.0611 13.491H17.5121C17.4865 13.4914 17.4616 13.4992 17.4403 13.5134C17.419 13.5275 17.4023 13.5476 17.3921 13.571C17.3856 13.5865 17.3822 13.6032 17.3821 13.62V15.812C17.3821 15.8291 17.3787 15.8459 17.3722 15.8616C17.3656 15.8773 17.3561 15.8916 17.344 15.9036C17.3319 15.9156 17.3175 15.9251 17.3018 15.9315C17.286 15.9379 17.2691 15.9412 17.2521 15.941H16.1681C16.1336 15.941 16.1006 15.9273 16.0762 15.903C16.0518 15.8786 16.0381 15.8455 16.0381 15.811V7.90604C16.0377 7.88028 16.0451 7.85501 16.0594 7.83358C16.0737 7.81215 16.0942 7.79556 16.1181 7.78604C16.1339 7.77941 16.1509 7.77601 16.1681 7.77604H19.0681C20.7051 7.77604 21.8821 8.96504 21.8821 10.633ZM20.5301 10.633C20.5301 9.67504 19.8721 8.97504 18.9801 8.97504H17.5121C17.495 8.97504 17.4781 8.9784 17.4624 8.98493C17.4466 8.99146 17.4323 9.00104 17.4202 9.01311C17.4081 9.02518 17.3985 9.03951 17.392 9.05529C17.3855 9.07106 17.3821 9.08796 17.3821 9.10504V12.155C17.3819 12.1721 17.3852 12.1891 17.3917 12.2049C17.3982 12.2207 17.4079 12.235 17.4201 12.247C17.4322 12.2591 17.4465 12.2687 17.4623 12.2753C17.4781 12.2818 17.495 12.2851 17.5121 12.285H18.9801C19.8721 12.29 20.5301 11.59 20.5301 10.633ZM22.2041 14.424C22.1927 14.1678 22.246 13.9129 22.359 13.6827C22.4721 13.4526 22.6413 13.2546 22.8511 13.107C23.2741 12.791 23.9351 12.627 24.9061 12.593L25.9391 12.557V12.254C25.9391 11.647 25.5291 11.391 24.8711 11.391C24.2131 11.391 23.7961 11.622 23.7011 12.001C23.693 12.0277 23.6764 12.0509 23.6538 12.0671C23.6312 12.0834 23.6039 12.0918 23.5761 12.091H22.5541C22.526 12.0914 22.4985 12.0826 22.4758 12.066C22.453 12.0494 22.4363 12.0259 22.4281 11.999C22.4227 11.9812 22.4213 11.9624 22.4241 11.944C22.5761 11.046 23.3281 10.364 24.9181 10.364C26.6101 10.364 27.2211 11.147 27.2211 12.64V15.812C27.221 15.8292 27.2174 15.8462 27.2107 15.8619C27.204 15.8777 27.1942 15.892 27.182 15.904C27.1697 15.916 27.1552 15.9255 27.1392 15.9318C27.1233 15.9382 27.1063 15.9413 27.0891 15.941H26.0591C26.0246 15.941 25.9916 15.9273 25.9672 15.903C25.9428 15.8786 25.9291 15.8455 25.9291 15.811V15.575C25.9294 15.5555 25.9238 15.5362 25.9129 15.52C25.902 15.5037 25.8863 15.4912 25.8681 15.484C25.8501 15.4769 25.8303 15.4752 25.8113 15.4791C25.7923 15.483 25.7749 15.4924 25.7611 15.506C25.4511 15.84 24.9531 16.081 24.1541 16.081C22.9791 16.081 22.2041 15.474 22.2041 14.424ZM25.9391 13.737V13.491L24.6001 13.561C23.8951 13.597 23.4851 13.887 23.4851 14.377C23.4851 14.821 23.8611 15.067 24.5191 15.067C25.4121 15.067 25.9391 14.587 25.9391 13.737ZM28.2551 18.337V17.418C28.2554 17.3988 28.2599 17.3798 28.2684 17.3625C28.2768 17.3452 28.289 17.33 28.3041 17.318C28.3191 17.3059 28.3365 17.2973 28.3551 17.2926C28.3738 17.2879 28.3932 17.2874 28.4121 17.291C28.5701 17.32 28.7301 17.335 28.8911 17.335C29.1669 17.3501 29.4397 17.2719 29.6656 17.113C29.8914 16.9541 30.0572 16.7237 30.1361 16.459L30.2031 16.248C30.2131 16.2196 30.2131 16.1885 30.2031 16.16L28.0581 10.689C28.0457 10.659 28.0449 10.6254 28.056 10.5949C28.0671 10.5643 28.0893 10.5391 28.1181 10.524C28.1372 10.514 28.1585 10.5088 28.1801 10.509H29.2201C29.2468 10.5091 29.2728 10.5173 29.2948 10.5324C29.3168 10.5476 29.3336 10.5691 29.3431 10.594L30.7991 14.453C30.8081 14.4789 30.825 14.5014 30.8474 14.5172C30.8699 14.5329 30.8967 14.5413 30.9241 14.541C30.9515 14.541 30.9781 14.5325 31.0005 14.5168C31.0229 14.501 31.0398 14.4788 31.0491 14.453L32.3141 10.605C32.3227 10.5785 32.3396 10.5554 32.3622 10.5392C32.3849 10.523 32.4122 10.5145 32.4401 10.515H33.5161C33.5484 10.5152 33.5795 10.5271 33.6038 10.5484C33.628 10.5697 33.6438 10.599 33.6481 10.631C33.6505 10.6524 33.6478 10.674 33.6401 10.694L31.3451 16.77C30.8171 18.183 29.9121 18.543 28.9151 18.543C28.7259 18.5483 28.5369 18.526 28.3541 18.477C28.3235 18.4695 28.2965 18.4512 28.2782 18.4256C28.2598 18.3999 28.2523 18.3685 28.2551 18.337ZM9.0701 7.32004C7.7056 7.30984 6.38852 7.82015 5.3871 8.74704C5.34449 8.78579 5.31789 8.83907 5.31253 8.89641C5.30716 8.95376 5.32342 9.01105 5.3581 9.05704L5.9761 9.89603C5.99613 9.92433 6.02214 9.94786 6.05228 9.96496C6.08243 9.98206 6.11598 9.99231 6.15053 9.99499C6.18509 9.99766 6.21981 9.99269 6.25223 9.98043C6.28465 9.96816 6.31397 9.94891 6.3381 9.92403C6.69803 9.56663 7.12547 9.28442 7.59554 9.09385C8.06561 8.90329 8.56891 8.80817 9.0761 8.81404C11.1961 8.81404 12.3031 10.398 12.3031 11.964C12.3031 13.664 11.1401 14.862 9.4681 14.885C8.1761 14.885 7.2021 14.035 7.2021 12.911C7.20321 12.6268 7.2678 12.3464 7.39116 12.0904C7.51452 11.8343 7.69353 11.609 7.9151 11.431C7.96228 11.3923 7.99223 11.3365 7.99841 11.2758C8.0046 11.2151 7.98651 11.1545 7.9481 11.107L7.2981 10.292C7.27848 10.267 7.25399 10.2461 7.22611 10.2308C7.19822 10.2155 7.16752 10.2059 7.13586 10.2027C7.10419 10.1996 7.0722 10.2028 7.04183 10.2123C7.01145 10.2218 6.98331 10.2374 6.9591 10.258C6.561 10.5774 6.23918 10.9815 6.0171 11.441C5.79582 11.8995 5.68063 12.4019 5.6801 12.911C5.6801 14.846 7.3351 16.363 9.4551 16.375H9.4851C12.0021 16.343 13.8221 14.491 13.8221 11.96C13.8221 9.71303 12.1551 7.32004 9.0701 7.32004Z" fill="white"/>
</g>
<defs>
<clipPath id="clip0_9_431">
<rect width="38" height="24" fill="white" transform="translate(0.5 0.920044)"/>
</clipPath>
</defs>
</svg>
