<svg width="38" height="25" viewBox="0 0 38 25" fill="none" xmlns="http://www.w3.org/2000/svg">
<g clip-path="url(#clip0_9_436)">
<path d="M17.7 0.420044V24.42H10.5C9.2 24.42 8.4 23.42 8.7 22.12L13.1 2.72004C13.4 1.42004 15 0.420044 16.3 0.420044H17.7ZM30.3 0.420044C29 0.420044 27.4 1.42004 27.1 2.72004L22.6 22.12C22.3 23.42 23.1 24.42 24.4 24.42H19.5V0.420044H30.3Z" fill="#005B9A"/>
<path d="M16.3001 0.420044C15.0001 0.420044 13.4001 1.52004 13.1001 2.72004L8.7001 22.12C8.4001 23.42 9.2001 24.42 10.5001 24.42H1.6001C0.800098 24.42 0.100098 23.82 0.100098 23.02V2.02004C0.100098 1.22004 0.800098 0.420044 1.6001 0.420044H16.3001Z" fill="#E9292D"/>
<path d="M30.2999 0.420044C28.9999 0.420044 27.3999 1.52004 27.0999 2.72004L22.6999 22.12C22.3999 23.42 23.1999 24.42 24.4999 24.42H9.99994H10.4999C9.19994 24.42 8.39994 23.42 8.69994 22.12L13.0999 2.72004C13.3999 1.42004 14.9999 0.420044 16.2999 0.420044H30.2999Z" fill="#0E73B9"/>
<path d="M38.0001 2.02004V23.02C38.0001 23.82 37.4001 24.42 36.5001 24.42H24.4001C23.1001 24.42 22.3001 23.32 22.6001 22.12L27.1001 2.72004C27.4001 1.42004 29.0001 0.420044 30.3001 0.420044H36.5001C37.4001 0.420044 38.0001 1.12004 38.0001 2.02004Z" fill="#059DA4"/>
<path d="M14.8779 14.065H15.0179C15.1579 14.065 15.2979 13.995 15.2979 13.925L15.7179 13.295H16.9079L16.6979 13.645H18.0979L17.8879 14.275H16.2079C15.9979 14.555 15.7879 14.695 15.5079 14.695H14.6679L14.8779 14.065ZM14.6679 14.975H17.6779L17.4679 15.675H16.2779L16.0679 16.375H17.2579L17.0479 17.075H15.8579L15.5779 18.125C15.5079 18.265 15.5779 18.405 15.8579 18.335H16.8379L16.6279 19.035H14.7379C14.3879 19.035 14.2479 18.825 14.3879 18.405L14.7379 17.075H13.9679L14.1779 16.375H14.9479L15.1579 15.675H14.4579L14.6679 14.975ZM19.4979 13.225V13.645C19.4979 13.645 20.0579 13.225 20.6179 13.225H22.5779L21.8079 15.885C21.7379 16.165 21.4579 16.375 21.0379 16.375H18.7979L18.3079 18.265C18.3079 18.335 18.3079 18.405 18.4479 18.405H18.8679L18.7279 18.965H17.6079C17.1879 18.965 17.0479 18.825 17.1179 18.615L18.5879 13.225H19.4979ZM21.1779 13.995H19.4279L19.2179 14.695C19.2179 14.695 19.4979 14.485 19.9879 14.485H21.0379L21.1779 13.995ZM20.5479 15.675C20.6879 15.675 20.7579 15.675 20.7579 15.535L20.8979 15.185H19.1479L19.0079 15.745L20.5479 15.675ZM19.3579 16.515H20.3379V16.935H20.6179C20.7579 16.935 20.8279 16.865 20.8279 16.795L20.8979 16.515H21.7379L21.5979 17.005C21.5279 17.355 21.2479 17.495 20.8279 17.565H20.2679V18.335C20.2679 18.475 20.3379 18.545 20.6179 18.545H21.1079L20.9679 19.105H19.7779C19.4279 19.105 19.2879 18.965 19.2879 18.615L19.3579 16.515ZM23.5579 14.065L23.7679 13.225H24.9579L24.8879 13.505C24.8879 13.505 25.4479 13.225 25.9379 13.225H27.4079L27.1979 14.065H26.9879L25.8679 17.915H26.0779L25.8679 18.685H25.6579L25.5879 19.035H24.3979L24.4679 18.685H22.2979L22.5079 17.915H22.7179L23.8379 14.065H23.5579ZM24.8179 14.065L24.5379 15.115C24.5379 15.115 25.0279 14.905 25.4479 14.835C25.5179 14.485 25.6579 14.065 25.6579 14.065H24.8179ZM24.3279 15.605L24.0479 16.725C24.0479 16.725 24.6079 16.445 25.0279 16.445C25.1679 16.025 25.2379 15.675 25.2379 15.675L24.3279 15.605ZM24.5379 17.915L24.7479 17.145H23.9079L23.6979 17.915H24.5379ZM27.4079 13.225H28.5279L28.5979 13.645C28.5979 13.715 28.6679 13.785 28.8079 13.785H29.0179L28.8079 14.485H28.0379C27.7579 14.485 27.5479 14.415 27.5479 14.135L27.4079 13.225ZM27.0579 14.695H30.6279L30.4179 15.465H29.2279L29.0179 16.165H30.1379L29.9279 16.935H28.6679L28.3879 17.355H29.0179L29.1579 18.195C29.1579 18.265 29.2279 18.335 29.3679 18.335H29.5779L29.3679 19.035H28.6679C28.3179 19.035 28.1079 18.965 28.1079 18.685L27.9679 17.915L27.4079 18.755C27.2679 18.965 27.0579 19.105 26.7779 19.105H25.7279L25.9379 18.405H26.2879C26.4279 18.405 26.4979 18.335 26.6379 18.195L27.4779 16.935H26.4279L26.6379 16.165H27.8279L28.0379 15.465H26.8479L27.0579 14.695ZM7.31793 9.65505C7.17793 10.355 6.89793 10.845 6.40793 11.195C5.91793 11.545 5.28793 11.755 4.51793 11.755C3.81793 11.755 3.25793 11.545 2.97793 11.195C2.76793 10.915 2.62793 10.635 2.62793 10.215C2.62793 10.075 2.62793 9.86505 2.69793 9.65505L3.53793 5.73505H4.72793L3.95793 9.65505V9.93505C3.95793 10.145 4.02793 10.285 4.09793 10.425C4.23793 10.635 4.44793 10.705 4.79793 10.705C5.14793 10.705 5.49793 10.635 5.70793 10.425C5.91793 10.215 6.12793 10.005 6.19793 9.65505L6.96793 5.73505H8.15793L7.31793 9.65505ZM8.43793 8.11505H9.27793L9.20793 8.60505L9.34793 8.46504C9.62793 8.18504 9.97793 8.04505 10.3979 8.04505C10.7479 8.04505 11.0279 8.18504 11.1679 8.39504C11.3079 8.60504 11.3779 8.88504 11.3079 9.30504L10.8179 11.685H9.90793L10.3279 9.51505C10.3979 9.23505 10.3979 9.02505 10.3279 8.95505C10.2579 8.81505 10.1179 8.81505 9.97793 8.81505C9.76793 8.81505 9.55793 8.88505 9.41793 9.02505C9.27793 9.16505 9.13793 9.37505 9.13793 9.65505L8.71793 11.685H7.80793L8.43793 8.11505ZM18.2379 8.11505H19.0779L19.0079 8.60505L19.1479 8.46504C19.4279 8.18504 19.7779 8.04505 20.1979 8.04505C20.5479 8.04505 20.8279 8.18504 20.9679 8.39504C21.1079 8.60504 21.1779 8.88504 21.1079 9.30504L20.6179 11.685H19.7079L20.1279 9.44505C20.1979 9.23505 20.1279 9.02505 20.0579 8.95505C19.9879 8.81505 19.8479 8.81505 19.7079 8.81505C19.4979 8.81505 19.2879 8.88505 19.1479 9.02505C19.0079 9.16505 18.8679 9.37505 18.8679 9.65505L18.4479 11.685H17.5379L18.2379 8.11505ZM12.4279 8.11505H13.4079L12.6379 11.615H11.6579L12.4279 8.11505ZM12.7779 6.78505H13.7579L13.5479 7.62505H12.5679L12.7779 6.78505ZM14.1779 11.335C13.9679 11.125 13.8279 10.775 13.8279 10.355V10.145C13.8279 10.075 13.8279 9.93505 13.8979 9.86505C14.0379 9.30505 14.2479 8.81505 14.5979 8.53505C14.9479 8.18505 15.4379 8.04505 15.9279 8.04505C16.3479 8.04505 16.6979 8.18504 16.9779 8.39504C17.1879 8.60504 17.3279 8.95505 17.3279 9.37505V9.58505C17.3279 9.65505 17.3279 9.79505 17.2579 9.86505C17.1179 10.425 16.9079 10.845 16.5579 11.195C16.2079 11.545 15.7179 11.685 15.2279 11.685C14.8779 11.685 14.5279 11.545 14.1779 11.335ZM16.0679 10.635C16.2079 10.425 16.3479 10.145 16.4179 9.79505V9.44505C16.4179 9.23505 16.3479 9.09505 16.2779 8.95505C16.2164 8.88662 16.1406 8.83239 16.056 8.79613C15.9714 8.75987 15.8799 8.74244 15.7879 8.74505C15.5079 8.74505 15.2979 8.81505 15.1579 9.02505C15.0179 9.23505 14.8779 9.51505 14.8079 9.86505V10.145C14.8079 10.355 14.8779 10.495 14.9479 10.635C15.0879 10.775 15.2279 10.845 15.4379 10.845C15.7179 10.915 15.8579 10.845 16.0679 10.635ZM22.5779 5.94505H25.0979C25.5879 5.94505 25.9379 6.08505 26.2179 6.29505C26.4979 6.50505 26.5679 6.85505 26.5679 7.20505V7.48504C26.5679 7.55504 26.5679 7.69505 26.4979 7.76505C26.4279 8.25505 26.1479 8.74505 25.7979 9.02505C25.3779 9.37505 24.9579 9.51505 24.3979 9.51505H22.9979L22.5779 11.545H21.3879L22.5779 5.94505ZM23.1379 8.53505H24.2579C24.5379 8.53505 24.7479 8.46504 24.9579 8.32504C25.0979 8.18504 25.2379 7.97505 25.3079 7.69505V7.41505C25.3079 7.20505 25.2379 7.06505 25.0979 6.99505C24.9579 6.92505 24.7479 6.85505 24.3979 6.85505H23.4879L23.1379 8.53505ZM31.8179 12.245C31.4679 13.015 31.1179 13.505 30.9079 13.715C30.6979 13.925 30.2779 14.415 29.2979 14.415L29.3679 13.785C30.2079 13.505 30.6279 12.385 30.9079 11.825L30.6279 8.04505H31.8179L31.8879 10.425L32.7979 8.11505H33.8479L31.8179 12.245ZM28.8779 8.39504L28.4579 8.67505C28.0379 8.32505 27.6179 8.11504 26.9179 8.46504C25.9379 8.95504 25.0279 12.595 27.8279 11.405L27.9679 11.615H29.0879L29.7879 8.32504L28.8779 8.39504ZM28.3179 10.215C28.1079 10.775 27.7579 11.055 27.4079 10.985C27.1279 10.845 27.0579 10.355 27.1979 9.79505C27.4079 9.23505 27.7579 8.95505 28.1079 9.02505C28.3879 9.16505 28.4579 9.65504 28.3179 10.215Z" fill="white"/>
</g>
<defs>
<clipPath id="clip0_9_436">
<rect width="38" height="24" fill="white" transform="translate(0 0.420044)"/>
</clipPath>
</defs>
</svg>
