<svg width="21" height="20" viewBox="0 0 21 20" fill="none" xmlns="http://www.w3.org/2000/svg">
<path fill-rule="evenodd" clip-rule="evenodd" d="M4.79735 0.285889H1.14834L0.259184 13.681C0.205365 14.4706 0.314461 15.2629 0.579695 16.0085C0.84493 16.7542 1.26064 17.4374 1.801 18.0157C2.34137 18.5939 2.99486 19.0549 3.72087 19.37C4.44689 19.6851 5.22994 19.8476 6.02139 19.8474H14.5434C15.3338 19.8475 16.1159 19.6853 16.8411 19.371C17.5662 19.0566 18.2192 18.5966 18.7594 18.0196C19.2996 17.4426 19.7155 16.7608 19.9815 16.0165C20.2475 15.2722 20.3578 14.4812 20.3056 13.6925L19.4049 0.285889H4.79735ZM4.79735 1.44064H2.23381L1.41393 13.7618C1.37122 14.3931 1.45868 15.0265 1.67088 15.6226C1.88307 16.2187 2.21548 16.7649 2.6475 17.2272C3.07951 17.6895 3.6019 18.0582 4.18228 18.3102C4.76265 18.5623 5.38863 18.6925 6.02139 18.6926H14.5434C15.1772 18.694 15.8044 18.5651 16.3862 18.3137C16.9679 18.0623 17.4917 17.6939 17.9249 17.2314C18.3582 16.7689 18.6916 16.2222 18.9045 15.6253C19.1174 15.0284 19.2052 14.3941 19.1624 13.7618L18.331 1.44064H15.7675V2.16813C15.7675 2.88844 15.6256 3.6017 15.35 4.26717C15.0743 4.93265 14.6703 5.53732 14.1609 6.04666C13.6516 6.55599 13.0469 6.96002 12.3815 7.23567C11.716 7.51132 11.0027 7.65319 10.2824 7.65319C9.56211 7.65319 8.84885 7.51132 8.18337 7.23567C7.51789 6.96002 6.91322 6.55599 6.40389 6.04666C5.89455 5.53732 5.49053 4.93265 5.21488 4.26717C4.93923 3.6017 4.79735 2.88844 4.79735 2.16813V1.44064ZM14.6127 1.44064H5.9521V2.16813C5.9521 3.3166 6.40833 4.41803 7.22042 5.23012C8.03251 6.04221 9.13394 6.49844 10.2824 6.49844C11.4309 6.49844 12.5323 6.04221 13.3444 5.23012C14.1565 4.41803 14.6127 3.3166 14.6127 2.16813V1.44064Z" fill="#0E1B4D"/>
</svg>
