<svg width="15" height="11" viewBox="0 0 15 11" fill="none" xmlns="http://www.w3.org/2000/svg">
<path fill-rule="evenodd" clip-rule="evenodd" d="M9.06482 0.492806C9.10014 0.407045 9.15612 0.33135 9.22778 0.27246C9.29944 0.213571 9.38454 0.173313 9.47552 0.155274C9.5665 0.137234 9.66053 0.141971 9.74923 0.169063C9.83794 0.196156 9.91857 0.244762 9.98394 0.310556L14.4839 4.81056C14.5363 4.86281 14.5779 4.92488 14.6062 4.99322C14.6346 5.06156 14.6492 5.13482 14.6492 5.20881C14.6492 5.28279 14.6346 5.35606 14.6062 5.42439C14.5779 5.49273 14.5363 5.5548 14.4839 5.60706L9.98394 10.1071C9.87832 10.2127 9.73507 10.272 9.58569 10.272C9.43632 10.272 9.29307 10.2127 9.18744 10.1071C9.08182 10.0014 9.02248 9.85818 9.02248 9.70881C9.02248 9.55943 9.08182 9.41618 9.18744 9.31056L12.7278 5.77131H0.585693C0.436509 5.77131 0.293435 5.71204 0.187946 5.60655C0.0824566 5.50106 0.0231934 5.35799 0.0231934 5.20881C0.0231934 5.05962 0.0824566 4.91655 0.187946 4.81106C0.293435 4.70557 0.436509 4.64631 0.585693 4.64631H12.7278L9.18744 1.10706C9.10841 1.02836 9.05456 0.92795 9.03272 0.818578C9.01089 0.709207 9.02206 0.595814 9.06482 0.492806Z" fill="#0E1B4D"/>
</svg>
