<svg width="16" height="11" viewBox="0 0 16 11" fill="none" xmlns="http://www.w3.org/2000/svg">
<path fill-rule="evenodd" clip-rule="evenodd" d="M9.57098 0.859017C9.60631 0.773256 9.66229 0.697561 9.73394 0.638671C9.8056 0.579781 9.89071 0.539524 9.98169 0.521485C10.0727 0.503445 10.1667 0.508182 10.2554 0.535274C10.3441 0.562367 10.4247 0.610973 10.4901 0.676767L14.9901 5.17677C15.0425 5.22902 15.0841 5.29109 15.1124 5.35943C15.1408 5.42777 15.1554 5.50103 15.1554 5.57502C15.1554 5.649 15.1408 5.72227 15.1124 5.7906C15.0841 5.85894 15.0425 5.92102 14.9901 5.97327L10.4901 10.4733C10.3845 10.5789 10.2412 10.6382 10.0919 10.6382C9.94248 10.6382 9.79923 10.5789 9.69361 10.4733C9.58799 10.3676 9.52865 10.2244 9.52865 10.075C9.52865 9.92564 9.58799 9.78239 9.69361 9.67677L13.234 6.13752H1.09186C0.942674 6.13752 0.7996 6.07825 0.69411 5.97276C0.588621 5.86727 0.529358 5.7242 0.529358 5.57502C0.529358 5.42583 0.588621 5.28276 0.69411 5.17727C0.7996 5.07178 0.942674 5.01252 1.09186 5.01252H13.234L9.69361 1.47327C9.61458 1.39457 9.56072 1.29416 9.53889 1.18479C9.51705 1.07542 9.52822 0.962024 9.57098 0.859017Z" fill="white"/>
</svg>
