<svg width="16" height="11" viewBox="0 0 16 11" fill="none" xmlns="http://www.w3.org/2000/svg">
<path fill-rule="evenodd" clip-rule="evenodd" d="M9.68469 1.05286C9.72001 0.967104 9.776 0.891409 9.84765 0.832519C9.91931 0.773629 10.0044 0.733372 10.0954 0.715332C10.1864 0.697292 10.2804 0.702029 10.3691 0.729122C10.4578 0.756214 10.5384 0.804821 10.6038 0.870614L15.1038 5.37061C15.1562 5.42287 15.1978 5.48494 15.2261 5.55328C15.2545 5.62161 15.2691 5.69488 15.2691 5.76886C15.2691 5.84285 15.2545 5.91611 15.2261 5.98445C15.1978 6.05279 15.1562 6.11486 15.1038 6.16711L10.6038 10.6671C10.4982 10.7727 10.3549 10.8321 10.2056 10.8321C10.0562 10.8321 9.91294 10.7727 9.80732 10.6671C9.70169 10.5615 9.64236 10.4182 9.64236 10.2689C9.64236 10.1195 9.70169 9.97624 9.80732 9.87061L13.3477 6.33136H1.20557C1.05638 6.33136 0.913308 6.2721 0.807819 6.16661C0.70233 6.06112 0.643066 5.91805 0.643066 5.76886C0.643066 5.61968 0.70233 5.47661 0.807819 5.37112C0.913308 5.26563 1.05638 5.20636 1.20557 5.20636H13.3477L9.80732 1.66711C9.72828 1.58842 9.67443 1.48801 9.6526 1.37864C9.63076 1.26927 9.64193 1.15587 9.68469 1.05286Z" fill="white"/>
</svg>
