<svg width="21" height="20" viewBox="0 0 21 20" fill="none" xmlns="http://www.w3.org/2000/svg">
<path fill-rule="evenodd" clip-rule="evenodd" d="M4.79714 0.285889H1.14813L0.25897 13.681C0.205152 14.4706 0.314248 15.2629 0.579482 16.0085C0.844716 16.7542 1.26042 17.4374 1.80079 18.0157C2.34116 18.5939 2.99464 19.0549 3.72066 19.37C4.44668 19.6851 5.22972 19.8476 6.02117 19.8474H14.5432C15.3336 19.8475 16.1157 19.6853 16.8408 19.371C17.566 19.0566 18.219 18.5966 18.7591 18.0196C19.2993 17.4426 19.7153 16.7608 19.9813 16.0165C20.2473 15.2722 20.3576 14.4812 20.3054 13.6925L19.4047 0.285889H4.79714ZM4.79714 1.44064H2.23359L1.41372 13.7618C1.37101 14.3931 1.45846 15.0265 1.67066 15.6226C1.88286 16.2187 2.21527 16.7649 2.64728 17.2272C3.07929 17.6895 3.60169 18.0582 4.18206 18.3102C4.76244 18.5623 5.38842 18.6925 6.02117 18.6926H14.5432C15.177 18.694 15.8042 18.5651 16.3859 18.3137C16.9677 18.0623 17.4915 17.6939 17.9247 17.2314C18.358 16.7689 18.6914 16.2222 18.9043 15.6253C19.1172 15.0284 19.205 14.3941 19.1622 13.7618L18.3308 1.44064H15.7673V2.16813C15.7673 2.88844 15.6254 3.6017 15.3497 4.26717C15.0741 4.93265 14.6701 5.53732 14.1607 6.04666C13.6514 6.55599 13.0467 6.96002 12.3812 7.23567C11.7158 7.51132 11.0025 7.65319 10.2822 7.65319C9.56189 7.65319 8.84864 7.51132 8.18316 7.23567C7.51768 6.96002 6.91301 6.55599 6.40368 6.04666C5.89434 5.53732 5.49031 4.93265 5.21466 4.26717C4.93901 3.6017 4.79714 2.88844 4.79714 2.16813V1.44064ZM14.6125 1.44064H5.95189V2.16813C5.95189 3.3166 6.40811 4.41803 7.22021 5.23012C8.0323 6.04221 9.13373 6.49844 10.2822 6.49844C11.4307 6.49844 12.5321 6.04221 13.3442 5.23012C14.1563 4.41803 14.6125 3.3166 14.6125 2.16813V1.44064Z" fill="#0E1B4D"/>
</svg>
