<svg width="16" height="12" viewBox="0 0 16 12" fill="none" xmlns="http://www.w3.org/2000/svg">
<path fill-rule="evenodd" clip-rule="evenodd" d="M9.95099 1.29896C9.98631 1.2132 10.0423 1.1375 10.1139 1.07861C10.1856 1.01972 10.2707 0.979466 10.3617 0.961426C10.4527 0.943386 10.5467 0.948123 10.6354 0.975216C10.7241 1.00231 10.8047 1.05091 10.8701 1.11671L15.3701 5.61671C15.4225 5.66896 15.4641 5.73103 15.4924 5.79937C15.5208 5.86771 15.5354 5.94097 15.5354 6.01496C15.5354 6.08895 15.5208 6.16221 15.4924 6.23055C15.4641 6.29888 15.4225 6.36096 15.3701 6.41321L10.8701 10.9132C10.7645 11.0188 10.6212 11.0782 10.4719 11.0782C10.3225 11.0782 10.1792 11.0188 10.0736 10.9132C9.96799 10.8076 9.90865 10.6643 9.90865 10.515C9.90865 10.3656 9.96799 10.2223 10.0736 10.1167L13.614 6.57746H1.47186C1.32268 6.57746 1.1796 6.51819 1.07412 6.41271C0.968626 6.30722 0.909363 6.16414 0.909363 6.01496C0.909363 5.86577 0.968626 5.7227 1.07412 5.61721C1.1796 5.51172 1.32268 5.45246 1.47186 5.45246H13.614L10.0736 1.91321C9.99458 1.83451 9.94073 1.7341 9.91889 1.62473C9.89706 1.51536 9.90823 1.40197 9.95099 1.29896Z" fill="#0E1B4D"/>
</svg>
